<?xml version="1.0" encoding="iso-8859-1"?>
<!-- Generator: Adobe Illustrator 19.0.0, SVG Export Plug-In . SVG Version: 6.00 Build 0)  -->
<svg version="1.1" id="Layer_1" xmlns="http://www.w3.org/2000/svg" xmlns:xlink="http://www.w3.org/1999/xlink" x="0px" y="0px"
	 viewBox="0 0 512 512" style="enable-background:new 0 0 512 512;" xml:space="preserve">
<path style="fill:#FC8059;" d="M230.7,411.423l-8.947,8.947l0.33,0.33l-73.264,73.264c-5.257,5.257-12.387,8.21-19.821,8.21l0,0
	c-7.434,0-14.565-2.953-19.821-8.21l-73.265-73.264l0.33-0.33l-8.947-8.947c-25.614-25.614-25.614-67.142,0-92.756l0,0
	c25.614-25.614,67.142-25.614,92.756,0l8.947,8.947l8.947-8.947c25.614-25.614,67.142-25.614,92.756,0l0,0
	C256.314,344.28,256.314,385.809,230.7,411.423z"/>
<path style="fill:#FFFFFF;" d="M102.4,363.789c0,4.465-3.62,8.084-8.084,8.084H80.842v13.474c0,4.465-3.62,8.084-8.084,8.084
	s-8.084-3.62-8.084-8.084v-13.474H51.2c-4.465,0-8.084-3.62-8.084-8.084s3.62-8.084,8.084-8.084h13.474v-13.474
	c0-4.465,3.62-8.084,8.084-8.084s8.084,3.62,8.084,8.084v13.474h13.474C98.78,355.705,102.4,359.325,102.4,363.789z"/>
<path style="fill:#FED766;" d="M57.359,8.084h246.375c27.214,0,49.275,22.061,49.275,49.275v160.144
	c0,27.214-22.061,49.275-49.275,49.275h-86.232h-4.619v64.674l0,0c-35.718,0-64.674-28.956-64.674-64.674l0,0h-4.62H57.359
	c-27.214,0.001-49.275-22.06-49.275-49.274V57.359C8.084,30.145,30.145,8.084,57.359,8.084z"/>
<g>
	<path style="fill:#AD8653;" d="M220.968,180.008v1.078c0,4.465-3.62,8.084-8.084,8.084c-4.465,0-8.084-3.62-8.084-8.084v-1.078
		c0-4.465,3.62-8.084,8.084-8.084C217.349,171.924,220.968,175.544,220.968,180.008z M180.547,171.924
		c-4.465,0-8.084,3.62-8.084,8.084v1.078c0,4.465,3.62,8.084,8.084,8.084c4.465,0,8.084-3.62,8.084-8.084v-1.078
		C188.632,175.544,185.012,171.924,180.547,171.924z M148.211,171.924c-4.465,0-8.084,3.62-8.084,8.084v1.078
		c0,4.465,3.62,8.084,8.084,8.084c4.465,0,8.084-3.62,8.084-8.084v-1.078C156.295,175.544,152.675,171.924,148.211,171.924z
		 M115.874,102.4h129.347c4.465,0,8.084-3.62,8.084-8.084s-3.62-8.084-8.084-8.084H115.874c-4.465,0-8.084,3.62-8.084,8.084
		S111.409,102.4,115.874,102.4z M245.221,129.347H115.874c-4.465,0-8.084,3.62-8.084,8.084c0,4.465,3.62,8.084,8.084,8.084h129.347
		c4.465,0,8.084-3.62,8.084-8.084C253.305,132.967,249.686,129.347,245.221,129.347z"/>
	<path style="fill:#AD8653;" d="M223.663,248.538h258.695c11.906,0,21.558,9.651,21.558,21.558v212.262
		c0,11.906-9.651,21.558-21.558,21.558H223.663c-11.906,0-21.558-9.651-21.558-21.558V270.096
		C202.105,258.189,211.757,248.538,223.663,248.538z"/>
</g>
<path style="fill:#7F5233;" d="M318.186,306.578c0,12.822-10.394,23.216-23.216,23.216s-23.216-10.394-23.216-23.216
	c0-12.822,10.394-23.217,23.216-23.217C307.792,283.362,318.186,293.757,318.186,306.578z M411.051,283.362
	c-12.822,0-23.217,10.394-23.217,23.217s10.394,23.216,23.217,23.216c12.822,0,23.216-10.394,23.216-23.216
	S423.872,283.362,411.051,283.362z"/>
<path style="fill:#4C4C4C;" d="M482.358,240.454h-63.223v-3.525c0-33.723-25.381-61.61-58.04-65.613V57.359
	C361.095,25.732,335.363,0,303.736,0H57.359C25.732,0,0,25.732,0,57.359v160.145c0,31.628,25.732,57.359,57.359,57.359h83.208
	c1.012,9.217,3.744,17.94,7.883,25.828c-5.917,3.298-11.358,7.391-16.223,12.258l-3.229,3.229l-3.23-3.23
	c-13.916-13.915-32.417-21.578-52.095-21.578c-19.679,0.001-38.179,7.664-52.095,21.579C7.663,326.864,0,345.365,0,365.044
	s7.663,38.18,21.578,52.094l7.029,7.029c0.386,0.813,0.915,1.575,1.588,2.247l73.265,73.264
	c6.822,6.821,15.891,10.577,25.539,10.577c9.647,0,18.717-3.756,25.537-10.577l39.485-39.485v22.165
	c0,16.344,13.297,29.642,29.642,29.642h258.695C498.703,512,512,498.702,512,482.358V270.096
	C512,253.751,498.703,240.454,482.358,240.454z M402.967,236.93v3.525h-46.688c3.141-7.197,4.815-15.018,4.815-22.949v-29.866
	C384.808,191.514,402.967,212.137,402.967,236.93z M303.054,240.454v-3.525c0-24.793,18.158-45.416,41.872-49.292v29.866
	c0,8.306-2.407,16.167-6.988,22.949h-34.884V240.454z M57.359,258.695c-22.712,0-41.191-18.478-41.191-41.191V57.359
	c0-22.712,18.478-41.191,41.191-41.191h246.375c22.713,0,41.192,18.478,41.192,41.191v113.958
	c-32.659,4.002-58.04,31.89-58.04,65.613v3.525h-63.223c-16.345,0-29.642,13.298-29.642,29.642v50.047
	c-22.337-7.819-37.726-28.927-37.726-53.363c0-4.466-3.62-8.084-8.084-8.084H57.359V258.695z M193.871,437.475l-50.769,50.77
	c-3.768,3.768-8.777,5.843-14.105,5.843c-5.328,0-10.338-2.075-14.105-5.843l-71.347-71.346c-0.386-0.813-0.915-1.575-1.588-2.246
	l-8.945-8.948c-10.862-10.861-16.843-25.301-16.843-40.661s5.981-29.801,16.842-40.663c22.421-22.421,58.903-22.421,81.324,0
	l8.947,8.947c1.516,1.516,3.572,2.367,5.716,2.367c2.144,0,4.201-0.852,5.716-2.368l8.945-8.945
	c4.14-4.139,8.804-7.566,13.901-10.244c9.335,10.908,21.909,19.039,36.461,22.905v100.298
	C193.973,437.387,193.92,437.428,193.871,437.475z M495.832,482.358c0,7.43-6.044,13.474-13.474,13.474H223.663
	c-7.43,0-13.474-6.044-13.474-13.474V270.096c0-7.43,6.044-13.474,13.474-13.474h63.223v19.72
	c-13.353,3.573-23.217,15.772-23.217,30.236c0,17.259,14.042,31.301,31.301,31.301s31.301-14.042,31.301-31.301
	c0-14.463-9.864-26.662-23.217-30.236v-19.72h39.004c0.002,0,0.003,0,0.005,0h60.903v19.72
	c-13.353,3.573-23.217,15.772-23.217,30.236c0,17.259,14.042,31.301,31.301,31.301s31.3-14.042,31.3-31.301
	c0-14.463-9.864-26.662-23.216-30.236v-19.72h63.223c7.43,0,13.474,6.044,13.474,13.474V482.358z M294.97,314.662
	c4.465,0,8.084-3.618,8.084-8.084v-12.769c4.229,2.686,7.048,7.4,7.048,12.769c0,8.344-6.789,15.133-15.133,15.133
	s-15.133-6.789-15.133-15.133c0-5.369,2.82-10.083,7.048-12.769v12.769C286.886,311.043,290.506,314.662,294.97,314.662z
	 M411.051,314.662c4.465,0,8.084-3.618,8.084-8.084v-12.769c4.228,2.686,7.047,7.4,7.047,12.769c0,8.344-6.788,15.133-15.131,15.133
	c-8.344,0-15.133-6.789-15.133-15.133c0-5.369,2.82-10.083,7.048-12.769v12.769C402.967,311.043,406.586,314.662,411.051,314.662z"
	/>
<g>
</g>
<g>
</g>
<g>
</g>
<g>
</g>
<g>
</g>
<g>
</g>
<g>
</g>
<g>
</g>
<g>
</g>
<g>
</g>
<g>
</g>
<g>
</g>
<g>
</g>
<g>
</g>
<g>
</g>
</svg>
