<?xml version="1.0" encoding="iso-8859-1"?>
<!-- Generator: Adobe Illustrator 19.0.0, SVG Export Plug-In . SVG Version: 6.00 Build 0)  -->
<svg version="1.1" id="Layer_1" xmlns="http://www.w3.org/2000/svg" xmlns:xlink="http://www.w3.org/1999/xlink" x="0px" y="0px"
	 viewBox="0 0 512 512" style="enable-background:new 0 0 512 512;" xml:space="preserve">
<path style="fill:#DBD8D2;" d="M503.916,347.621L503.916,347.621c0,23.812-19.304,43.116-43.116,43.116H51.2
	c-23.812,0-43.116-19.304-43.116-43.116l0,0c0-23.812,19.304-43.116,43.116-43.116h409.6
	C484.612,304.505,503.916,323.809,503.916,347.621z"/>
<path style="fill:#B2D1D8;" d="M175.158,132.042c0,20.836-16.891,37.726-37.726,37.726c-20.836,0-37.726-16.891-37.726-37.726
	s16.891-37.726,37.726-37.726C158.267,94.316,175.158,111.206,175.158,132.042z M374.568,94.316
	c-20.836,0-37.726,16.891-37.726,37.726s16.891,37.726,37.726,37.726c20.836,0,37.726-16.891,37.726-37.726
	S395.404,94.316,374.568,94.316z"/>
<path style="fill:#CFDFE2;" d="M202.105,265.094v68.716H72.758v-68.716c0-35.718,28.955-64.674,64.674-64.674l0,0
	C173.15,200.422,202.105,229.376,202.105,265.094z M132.042,105.095c-11.906,0-21.558,9.651-21.558,21.558
	c0,11.906,9.651,21.558,21.558,21.558s21.558-9.651,21.558-21.558S143.949,105.095,132.042,105.095z M374.568,200.422
	L374.568,200.422c-35.718,0-64.674,28.955-64.674,64.674v68.716h129.347v-68.716C439.242,229.376,410.287,200.422,374.568,200.422z
	 M369.179,105.095c-11.906,0-21.558,9.651-21.558,21.558c0,11.906,9.651,21.558,21.558,21.558c11.906,0,21.558-9.651,21.558-21.558
	S381.085,105.095,369.179,105.095z"/>
<path style="fill:#B2D1D8;" d="M201.382,255.391c0.476,3.166,0.723,6.406,0.723,9.704v77.136H72.758v-56.654
	c8.898,13.626,24.281,22.633,41.768,22.633l0,0c27.533,0,49.853-22.32,49.853-49.853l0,0
	C164.379,235.442,197.972,232.73,201.382,255.391z M401.516,258.357L401.516,258.357c0,27.533-22.32,49.853-49.853,49.853l0,0
	c-17.488,0-32.87-9.007-41.768-22.633v56.654h129.347v-77.137c0-3.298-0.247-6.539-0.723-9.704
	C435.108,232.73,401.516,235.442,401.516,258.357z"/>
<path style="fill:#A384E2;" d="M312.893,64.978c0,31.422-25.472,56.893-56.893,56.893s-56.893-25.472-56.893-56.893
	S224.578,8.084,256,8.084S312.893,33.556,312.893,64.978z"/>
<path style="fill:#B69CF7;" d="M353.532,246.004v109.539H158.468V246.004c0-50.601,41.02-91.621,91.621-91.621h11.822
	C312.512,154.383,353.532,195.403,353.532,246.004z M247.873,24.34c-17.956,0-32.51,14.556-32.51,32.51s14.556,32.51,32.51,32.51
	s32.51-14.556,32.51-32.51S265.827,24.34,247.873,24.34z"/>
<path style="fill:#A384E2;" d="M352.441,237.28c0.718,4.773,1.091,9.66,1.091,14.635v103.628H158.468v-72.737
	c13.419,20.549,36.616,34.132,62.989,34.132l0,0c41.522,0,75.181-33.659,75.181-75.181l0,0
	C296.638,207.196,347.299,203.107,352.441,237.28z"/>
<path style="fill:#FC8059;" d="M369.179,347.621c0,62.507-50.672,113.179-113.179,113.179s-113.179-50.672-113.179-113.179
	S193.493,234.442,256,234.442S369.179,285.114,369.179,347.621z"/>
<path style="fill:#FFFFFF;" d="M256,272.168c-41.671,0-75.453,33.781-75.453,75.453s33.781,75.453,75.453,75.453
	s75.453-33.781,75.453-75.453S297.671,272.168,256,272.168z M256,369.179c-11.906,0-21.558-9.651-21.558-21.558
	c0-11.906,9.651-21.558,21.558-21.558c11.906,0,21.558,9.651,21.558,21.558C277.558,359.527,267.906,369.179,256,369.179z"/>
<path style="fill:#4C4C4C;" d="M137.432,177.853c25.26,0,45.811-20.55,45.811-45.811s-20.55-45.811-45.811-45.811
	s-45.811,20.55-45.811,45.811S112.171,177.853,137.432,177.853z M137.432,102.4c16.344,0,29.642,13.298,29.642,29.642
	s-13.298,29.642-29.642,29.642s-29.642-13.298-29.642-29.642S121.087,102.4,137.432,102.4z M460.8,296.421h-18.863v-31.327
	c0-40.119-32.639-72.758-72.758-72.758c-7.275,0-14.433,1.069-21.322,3.182c-17.353-29.43-49.379-49.221-85.947-49.221h-11.822
	c-37.256,0-69.799,20.544-86.912,50.894c-0.462-0.279-0.96-0.516-1.49-0.704c-7.781-2.754-15.941-4.151-24.255-4.151
	c-40.119,0-72.758,32.639-72.758,72.758v31.327H51.2c-28.231,0-51.2,22.969-51.2,51.2s22.969,51.2,51.2,51.2h94.892
	c18.256,39.034,56.704,66.803,101.823,69.787v35.307c0,4.466,3.618,8.084,8.084,8.084s8.084-3.618,8.084-8.084v-35.308
	c45.12-2.985,83.566-30.753,101.823-69.787H460.8c28.231,0,51.2-22.969,51.2-51.2S489.031,296.421,460.8,296.421z M369.179,208.506
	c31.203,0,56.589,25.387,56.589,56.589v74.442h-48.781c-1.23-18.595-6.668-36.056-15.372-51.439v-42.095
	c0-12.576-2.347-24.612-6.614-35.703C359.609,209.109,364.36,208.506,369.179,208.506z M339.139,339.537
	c-3.823-39.62-35.434-71.231-75.055-75.055v-21.648c51.518,3.938,92.766,45.184,96.702,96.702h-21.647V339.537z M317.979,355.705
	h4.887c-3.69,30.694-28.088,55.092-58.782,58.782v-7.582c0-4.466-3.618-8.084-8.084-8.084s-8.084,3.618-8.084,8.084v7.582
	c-30.694-3.69-55.092-28.088-58.782-58.782h4.887c4.466,0,8.084-3.618,8.084-8.084s-3.618-8.084-8.084-8.084h-4.887
	c3.69-30.694,28.088-55.092,58.782-58.782v7.582c0,4.466,3.618,8.084,8.084,8.084s8.084-3.618,8.084-8.084v-7.582
	c30.694,3.69,55.092,28.088,58.782,58.782h-4.887c-4.466,0-8.084,3.618-8.084,8.084S313.513,355.705,317.979,355.705z
	 M151.214,339.537c3.938-51.518,45.184-92.766,96.702-96.702v21.648c-39.62,3.823-71.231,35.434-75.055,75.055h-21.647V339.537z
	 M250.089,162.467h11.822c46.062,0,83.537,37.475,83.537,83.537v19.829c-20.483-22.382-49.233-37.072-81.363-39.198v-35.309
	c0-4.466-3.618-8.084-8.084-8.084c-4.466,0-8.084,3.618-8.084,8.084v35.308c-32.131,2.126-60.881,16.816-81.364,39.199v-19.83
	C166.552,199.941,204.026,162.467,250.089,162.467z M80.842,265.095c0-31.203,25.387-56.589,56.589-56.589
	c6.471,0,12.816,1.085,18.861,3.224c0.049,0.017,0.097,0.027,0.144,0.043c-3.916,10.68-6.055,22.21-6.055,34.231v42.097
	c-8.703,15.383-14.14,32.842-15.371,51.437h-54.17V265.095z M51.2,382.653c-19.317,0-35.032-15.715-35.032-35.032
	c0-19.317,15.715-35.032,35.032-35.032h13.474v26.947H53.895c-4.466,0-8.084,3.618-8.084,8.084s3.618,8.084,8.084,8.084h81.118
	c0.615,9.305,2.284,18.327,4.89,26.947H51.2z M151.214,355.705h21.648c3.823,39.62,35.434,71.23,75.055,75.055v21.648
	C196.398,448.471,155.151,407.223,151.214,355.705z M264.084,452.407v-21.648c39.62-3.823,71.231-35.434,75.055-75.055h21.648
	C356.85,407.223,315.602,448.471,264.084,452.407z M460.8,382.653h-88.703c2.606-8.62,4.275-17.642,4.89-26.947h81.118
	c4.466,0,8.084-3.618,8.084-8.084s-3.618-8.084-8.084-8.084h-16.168v-26.947H460.8c19.317,0,35.032,15.715,35.032,35.032
	C495.832,366.938,480.117,382.653,460.8,382.653z M369.179,177.853c25.26,0,45.811-20.55,45.811-45.811s-20.55-45.811-45.811-45.811
	s-45.811,20.55-45.811,45.811S343.918,177.853,369.179,177.853z M369.179,102.4c16.344,0,29.642,13.298,29.642,29.642
	s-13.298,29.642-29.642,29.642s-29.642-13.298-29.642-29.642S352.835,102.4,369.179,102.4z M256,129.955
	c35.828,0,64.978-29.149,64.978-64.978S291.828,0,256,0s-64.978,29.15-64.978,64.978S220.172,129.955,256,129.955z M256,16.168
	c26.914,0,48.809,21.895,48.809,48.809S282.914,113.787,256,113.787s-48.809-21.895-48.809-48.809S229.086,16.168,256,16.168z
	 M256,317.979c-16.344,0-29.642,13.298-29.642,29.642s13.298,29.642,29.642,29.642s29.642-13.298,29.642-29.642
	S272.344,317.979,256,317.979z M256,361.095c-7.43,0-13.474-6.044-13.474-13.474s6.044-13.474,13.474-13.474
	c7.43,0,13.474,6.044,13.474,13.474S263.43,361.095,256,361.095z"/>
<g>
</g>
<g>
</g>
<g>
</g>
<g>
</g>
<g>
</g>
<g>
</g>
<g>
</g>
<g>
</g>
<g>
</g>
<g>
</g>
<g>
</g>
<g>
</g>
<g>
</g>
<g>
</g>
<g>
</g>
</svg>
