<?xml version="1.0" encoding="iso-8859-1"?>
<!-- Generator: Adobe Illustrator 19.0.0, SVG Export Plug-In . SVG Version: 6.00 Build 0)  -->
<svg version="1.1" id="Layer_1" xmlns="http://www.w3.org/2000/svg" xmlns:xlink="http://www.w3.org/1999/xlink" x="0px" y="0px"
	 viewBox="0 0 512 512" style="enable-background:new 0 0 512 512;" xml:space="preserve">
<path style="fill:#A5A5A5;" d="M503.916,374.568V460.8l0,0c0,23.812-19.304,43.116-43.116,43.116H51.2
	c-23.812,0-43.116-19.304-43.116-43.116l0,0v-86.232H503.916z"/>
<path style="fill:#DBD8D2;" d="M503.916,374.568L503.916,374.568c0,23.812-19.304,43.116-43.116,43.116H51.2
	c-23.812,0-43.116-19.304-43.116-43.116l0,0c0-23.812,19.304-43.116,43.116-43.116h409.6
	C484.612,331.453,503.916,350.757,503.916,374.568z"/>
<path style="fill:#FC8059;" d="M396.126,207.649v166.92H288.337v-166.92c0-11.906,9.651-21.558,21.558-21.558h64.674
	C386.475,186.091,396.126,195.742,396.126,207.649z"/>
<path style="fill:#BF5243;" d="M331.453,228.59v145.978H223.663V228.59c0-11.906,9.651-21.558,21.558-21.558h64.674
	C321.801,207.032,331.453,216.685,331.453,228.59z"/>
<path style="fill:#A3CCAA;" d="M309.895,29.642v344.926H202.105V29.642c0-11.906,9.651-21.558,21.558-21.558h64.674
	C300.243,8.084,309.895,17.736,309.895,29.642z"/>
<path style="fill:#80A886;" d="M245.221,144.823v229.746H137.432V144.823c0-11.906,9.651-21.558,21.558-21.558h64.674
	C235.57,123.265,245.221,132.916,245.221,144.823z"/>
<path style="fill:#FED766;" d="M223.663,123.881v250.687H115.874V123.881c0-11.906,9.651-21.558,21.558-21.558h64.674
	C214.012,102.323,223.663,111.975,223.663,123.881z"/>
<path style="fill:#4C4C4C;" d="M190.787,460.8c0,4.465-3.62,8.084-8.084,8.084h-1.078c-4.465,0-8.084-3.62-8.084-8.084
	c0-4.465,3.62-8.084,8.084-8.084h1.078C187.168,452.716,190.787,456.335,190.787,460.8z M126.653,452.716h-1.078
	c-4.465,0-8.084,3.62-8.084,8.084c0,4.465,3.62,8.084,8.084,8.084h1.078c4.465,0,8.084-3.62,8.084-8.084
	C134.737,456.335,131.117,452.716,126.653,452.716z M512,374.568V460.8c0,28.231-22.969,51.2-51.2,51.2H51.2
	C22.969,512,0,489.031,0,460.8v-86.232c0-28.231,22.969-51.2,51.2-51.2h56.589V126.653c0-16.345,13.297-29.642,29.642-29.642h56.589
	V29.642C194.021,13.297,207.318,0,223.663,0h64.674c16.345,0,29.642,13.297,29.642,29.642v153.6h56.589
	c16.345,0,29.642,13.297,29.642,29.642v110.484H460.8C489.031,323.368,512,346.337,512,374.568z M317.979,199.411v167.074h70.063
	v-153.6c0-7.43-6.044-13.474-13.474-13.474H317.979z M210.189,29.642V98.14c12.426,3.529,21.558,14.971,21.558,28.512v239.832
	h70.063V29.642c0-7.43-6.044-13.474-13.474-13.474h-64.674C216.233,16.168,210.189,22.212,210.189,29.642z M123.958,366.484h91.621
	V126.653c0-7.43-6.044-13.474-13.474-13.474h-64.674c-7.43,0-13.474,6.044-13.474,13.474V366.484z M16.168,374.568
	c0,19.316,15.716,35.032,35.032,35.032h409.6c19.316,0,35.032-15.716,35.032-35.032s-15.716-35.032-35.032-35.032h-56.589v26.947
	h45.811c4.465,0,8.084,3.62,8.084,8.084c0,4.465-3.62,8.084-8.084,8.084H61.979c-4.465,0-8.084-3.62-8.084-8.084
	c0-4.465,3.62-8.084,8.084-8.084h45.811v-26.947H51.2C31.884,339.537,16.168,355.253,16.168,374.568z M495.832,460.8v-5.827
	c-9.166,8.617-21.489,13.911-35.032,13.911H223.663c-4.465,0-8.084-3.62-8.084-8.084c0-4.465,3.62-8.084,8.084-8.084H460.8
	c19.316,0,35.032-15.716,35.032-35.032v-5.827c-9.166,8.617-21.489,13.911-35.032,13.911H51.2c-13.543,0-25.865-5.295-35.032-13.911
	V460.8c0,19.316,15.716,35.032,35.032,35.032h409.6C480.116,495.832,495.832,480.116,495.832,460.8z"/>
<g>
</g>
<g>
</g>
<g>
</g>
<g>
</g>
<g>
</g>
<g>
</g>
<g>
</g>
<g>
</g>
<g>
</g>
<g>
</g>
<g>
</g>
<g>
</g>
<g>
</g>
<g>
</g>
<g>
</g>
</svg>
