<?xml version="1.0" encoding="iso-8859-1"?>
<!-- Generator: Adobe Illustrator 19.0.0, SVG Export Plug-In . SVG Version: 6.00 Build 0)  -->
<svg version="1.1" id="Layer_1" xmlns="http://www.w3.org/2000/svg" xmlns:xlink="http://www.w3.org/1999/xlink" x="0px" y="0px"
	 viewBox="0 0 512 512" style="enable-background:new 0 0 512 512;" xml:space="preserve">
<path style="fill:#A5A5A5;" d="M503.916,110.484v37.726H8.084v-37.726c0-23.812,19.304-43.116,43.116-43.116h409.6
	C484.612,67.368,503.916,86.672,503.916,110.484z"/>
<path style="fill:#E9F2F4;" d="M503.916,132.042v301.81c0,23.812-19.304,43.116-43.116,43.116H51.2
	c-23.812,0-43.116-19.304-43.116-43.116v-301.81h64.674V56.589c0-11.906,9.651-21.558,21.558-21.558h86.232
	c11.906,0,21.558,9.651,21.558,21.558v75.453H503.916z"/>
<path style="fill:#CFDFE2;" d="M428.463,428.463H83.537c-11.906,0-21.558-9.651-21.558-21.558V288.337
	c0-11.906,9.651-21.558,21.558-21.558h344.926c11.906,0,21.558,9.651,21.558,21.558v118.568
	C450.021,418.812,440.37,428.463,428.463,428.463z M202.105,202.105L202.105,202.105c0-11.906-9.651-21.558-21.558-21.558H83.537
	c-11.906,0-21.558,9.651-21.558,21.558l0,0c0,11.906,9.651,21.558,21.558,21.558h97.011
	C192.454,223.663,202.105,214.012,202.105,202.105z M450.021,202.105L450.021,202.105c0-11.906-9.651-21.558-21.558-21.558H256
	c-11.906,0-21.558,9.651-21.558,21.558l0,0c0,11.906,9.651,21.558,21.558,21.558h172.463
	C440.37,223.663,450.021,214.012,450.021,202.105z"/>
<path style="fill:#C3E4ED;" d="M202.105,56.589v75.453H72.758V56.589c0-11.906,9.651-21.558,21.558-21.558h86.232
	C192.454,35.032,202.105,44.683,202.105,56.589z"/>
<path style="fill:#B2D1D8;" d="M180.547,72.758v21.558c0,5.953-4.826,10.779-10.779,10.779h-64.674
	c-5.953,0-10.779-4.826-10.779-10.779V72.758c0-5.953,4.826-10.779,10.779-10.779h64.674
	C175.722,61.979,180.547,66.805,180.547,72.758z"/>
<path style="fill:#4C4C4C;" d="M377.263,100.244v-1.078c0-4.465,3.618-8.084,8.084-8.084s8.084,3.62,8.084,8.084v1.078
	c0,4.465-3.618,8.084-8.084,8.084S377.263,104.709,377.263,100.244z M417.684,108.328c4.466,0,8.084-3.62,8.084-8.084v-1.078
	c0-4.465-3.618-8.084-8.084-8.084c-4.466,0-8.084,3.62-8.084,8.084v1.078C409.6,104.709,413.218,108.328,417.684,108.328z
	 M450.021,108.328c4.466,0,8.084-3.62,8.084-8.084v-1.078c0-4.465-3.618-8.084-8.084-8.084s-8.084,3.62-8.084,8.084v1.078
	C441.937,104.709,445.555,108.328,450.021,108.328z M512,110.484v21.558v301.81c0,28.231-22.969,51.2-51.2,51.2H51.2
	c-28.231,0-51.2-22.969-51.2-51.2v-301.81v-21.558c0-28.231,22.969-51.2,51.2-51.2h13.474v-2.695
	c0-16.345,13.297-29.642,29.642-29.642h86.232c16.345,0,29.642,13.297,29.642,29.642v2.695H460.8
	C489.031,59.284,512,82.253,512,110.484z M210.189,75.453v48.505h285.642v-13.474c0-19.316-15.715-35.032-35.032-35.032H210.189z
	 M80.842,123.958h113.179V56.589c0-7.43-6.044-13.474-13.474-13.474H94.316c-7.43,0-13.474,6.044-13.474,13.474V123.958z
	 M16.168,110.484v13.474h48.505V75.453H51.2C31.884,75.453,16.168,91.168,16.168,110.484z M495.832,140.126H16.168v293.726
	c0,19.316,15.716,35.032,35.032,35.032h409.6c19.317,0,35.032-15.716,35.032-35.032V140.126z"/>
<g>
</g>
<g>
</g>
<g>
</g>
<g>
</g>
<g>
</g>
<g>
</g>
<g>
</g>
<g>
</g>
<g>
</g>
<g>
</g>
<g>
</g>
<g>
</g>
<g>
</g>
<g>
</g>
<g>
</g>
</svg>
