<?xml version="1.0" encoding="iso-8859-1"?>
<!-- Generator: Adobe Illustrator 19.0.0, SVG Export Plug-In . SVG Version: 6.00 Build 0)  -->
<svg version="1.1" id="Layer_1" xmlns="http://www.w3.org/2000/svg" xmlns:xlink="http://www.w3.org/1999/xlink" x="0px" y="0px"
	 viewBox="0 0 512 512" style="enable-background:new 0 0 512 512;" xml:space="preserve">
<path style="fill:#A5A5A5;" d="M450.021,126.653v43.116H61.979v-43.116c0-11.906,9.651-21.558,21.558-21.558h344.926
	C440.37,105.095,450.021,114.746,450.021,126.653z"/>
<path style="fill:#E9F2F4;" d="M450.021,253.227v-94.237H191.326V94.316c0-5.953-4.826-10.779-10.779-10.779h-64.674
	c-5.953,0-10.779,4.826-10.779,10.779v64.674H61.979v75.453c-29.957,1.412-53.895,26.221-53.895,56.522s23.938,55.11,53.895,56.522
	v59.42c0,11.906,9.651,21.558,21.558,21.558h344.926c11.906,0,21.558-9.651,21.558-21.558V269.426
	c21.035,1.393,37.726,18.94,37.726,40.321c0,21.381-16.691,38.928-37.726,40.321v16.201c29.957-1.412,53.895-26.221,53.895-56.522
	C503.916,279.446,479.978,254.639,450.021,253.227z M24.253,290.964c0-21.382,16.69-38.928,37.726-40.321v80.643
	C40.944,329.892,24.253,312.345,24.253,290.964z"/>
<path style="fill:#CFDFE2;" d="M406.905,266.779v118.568c0,5.953-4.826,10.779-10.779,10.779H115.874
	c-5.953,0-10.779-4.826-10.779-10.779V266.779c0-5.953,4.826-10.779,10.779-10.779h280.253
	C402.08,256,406.905,260.826,406.905,266.779z M196.716,191.326h-75.453c-8.929,0-16.168,7.239-16.168,16.168l0,0
	c0,8.929,7.239,16.168,16.168,16.168h75.453c8.929,0,16.168-7.239,16.168-16.168l0,0
	C212.884,198.565,205.645,191.326,196.716,191.326z M390.737,191.326H250.611c-8.929,0-16.168,7.239-16.168,16.168l0,0
	c0,8.929,7.239,16.168,16.168,16.168h140.126c8.929,0,16.168-7.239,16.168-16.168l0,0
	C406.905,198.565,399.666,191.326,390.737,191.326z"/>
<path style="fill:#C3E4ED;" d="M191.326,94.316v64.674h-86.232V94.316c0-5.953,4.826-10.779,10.779-10.779h64.674
	C186.501,83.537,191.326,88.363,191.326,94.316z"/>
<path style="fill:#B2D1D8;" d="M164.379,137.432h-32.337c-2.976,0-5.389-2.413-5.389-5.389v-21.558c0-2.976,2.413-5.389,5.389-5.389
	h32.337c2.976,0,5.389,2.413,5.389,5.389v21.558C169.768,135.018,167.355,137.432,164.379,137.432z"/>
<path style="fill:#FC8059;" d="M371.411,338.855l-41.92,33.082c-2.105,1.661-5.517,1.661-7.622,0
	c-1.011-0.798-1.578-1.88-1.578-3.007v-21.376H64.674c-31.204,0-56.589-25.385-56.589-56.589c0-30.3,23.938-55.11,53.895-56.522
	v16.2c-21.036,1.393-37.726,18.94-37.726,40.321c0,22.289,18.132,40.421,40.421,40.421h255.617v-34.633
	c0-1.127,0.568-2.21,1.578-3.007c2.105-1.661,5.518-1.661,7.622,0l41.92,33.082C375.62,330.147,375.62,335.532,371.411,338.855z
	 M447.326,253.158H191.709v-34.634c0-1.127-0.568-2.21-1.578-3.007c-2.105-1.661-5.517-1.661-7.622,0l-41.92,33.082
	c-4.209,3.322-4.209,8.707,0,12.029l41.92,33.082c2.105,1.661,5.517,1.661,7.622,0c1.011-0.798,1.578-1.88,1.578-3.007v-21.376
	h255.617c22.289,0,40.421,18.132,40.421,40.421c0,21.382-16.691,38.928-37.726,40.321v16.201
	c29.957-1.412,53.895-26.221,53.895-56.522C503.916,278.544,478.53,253.158,447.326,253.158z"/>
<path style="fill:#4C4C4C;" d="M512,303.118c0-30.425-24.105-55.306-54.193-56.53v-87.598v-32.337
	c0-16.345-13.283-29.642-29.61-29.642H199.51v-2.695c0-10.401-8.454-18.863-18.846-18.863h-64.575
	c-10.392,0-18.846,8.463-18.846,18.863v2.695h-13.44c-16.326,0-29.609,13.297-29.609,29.642v32.337v68.814
	C24.105,229.028,0,253.91,0,284.335c0,31.204,25.352,56.589,56.514,56.589h255.594v28.005c0,3.608,1.693,7.015,4.647,9.349
	c2.514,1.988,5.665,2.981,8.818,2.98c3.153,0,6.306-0.993,8.819-2.979l41.857-33.082c3.954-3.126,6.222-7.629,6.222-12.356
	c0-4.727-2.268-9.23-6.223-12.358l-41.856-33.082c-5.029-3.973-12.61-3.972-17.633,0c-2.954,2.334-4.649,5.742-4.649,9.351v28.004
	H70.362V167.074h371.275v79.455H199.892v-28.005c0-3.607-1.693-7.015-4.647-9.349c-5.027-3.975-12.61-3.975-17.637-0.001
	l-41.856,33.082c-3.955,3.126-6.223,7.629-6.224,12.357c0,4.727,2.268,9.231,6.224,12.358l41.856,33.081
	c2.514,1.988,5.666,2.98,8.819,2.98c3.152,0,6.302-0.993,8.815-2.979c2.955-2.334,4.649-5.742,4.649-9.351v-28.004h255.593
	c22.248,0,40.347,18.132,40.347,40.421c0,21.507-16.854,39.141-38.025,40.35v-44.353c0-4.465-3.618-8.084-8.084-8.084
	s-8.084,3.62-8.084,8.084v107.789c0,7.43-6.03,13.474-13.441,13.474H83.803c-7.411,0-13.44-6.044-13.44-13.474v-32.337
	c0-4.465-3.62-8.084-8.084-8.084s-8.084,3.62-8.084,8.084v32.337c0,16.345,13.283,29.642,29.609,29.642h344.394
	c16.326,0,29.61-13.297,29.61-29.642v-47.256C487.895,358.425,512,333.543,512,303.118z M328.276,303.177l37.53,29.663
	l-37.53,29.664V303.177z M183.724,284.275l-37.53-29.663l37.53-29.664L183.724,284.275L183.724,284.275z M113.412,94.316
	c0-1.485,1.201-2.695,2.677-2.695h64.575c1.477,0,2.677,1.209,2.677,2.695v56.589h-69.929
	C113.412,150.905,113.412,94.316,113.412,94.316z M83.803,113.179h13.44v37.726H70.362v-24.253
	C70.362,119.223,76.391,113.179,83.803,113.179z M16.168,284.335c0-21.507,16.855-39.141,38.025-40.35v80.699
	C33.023,323.474,16.168,305.842,16.168,284.335z M199.51,150.905v-37.726h228.687c7.412,0,13.441,6.044,13.441,13.474v24.253H199.51
	z M350.182,131.503v1.078c0,4.465-3.618,8.084-8.084,8.084c-4.466,0-8.084-3.62-8.084-8.084v-1.078c0-4.465,3.618-8.084,8.084-8.084
	C346.564,123.419,350.182,127.039,350.182,131.503z M382.469,131.503v1.078c0,4.465-3.618,8.084-8.084,8.084
	c-4.466,0-8.084-3.62-8.084-8.084v-1.078c0-4.465,3.618-8.084,8.084-8.084C378.851,123.419,382.469,127.039,382.469,131.503z
	 M414.757,131.503v1.078c0,4.465-3.618,8.084-8.084,8.084s-8.084-3.62-8.084-8.084v-1.078c0-4.465,3.618-8.084,8.084-8.084
	S414.757,127.039,414.757,131.503z"/>
<g>
</g>
<g>
</g>
<g>
</g>
<g>
</g>
<g>
</g>
<g>
</g>
<g>
</g>
<g>
</g>
<g>
</g>
<g>
</g>
<g>
</g>
<g>
</g>
<g>
</g>
<g>
</g>
<g>
</g>
</svg>
