<?xml version="1.0" encoding="iso-8859-1"?>
<!-- Generator: Adobe Illustrator 19.0.0, SVG Export Plug-In . SVG Version: 6.00 Build 0)  -->
<svg version="1.1" id="Layer_1" xmlns="http://www.w3.org/2000/svg" xmlns:xlink="http://www.w3.org/1999/xlink" x="0px" y="0px"
	 viewBox="0 0 512 512" style="enable-background:new 0 0 512 512;" xml:space="preserve">
<path style="fill:#A5A5A5;" d="M503.916,83.537v43.116H8.084V83.537c0-23.812,19.304-43.116,43.116-43.116h409.6
	C484.612,40.421,503.916,59.725,503.916,83.537z"/>
<path style="fill:#E9F2F4;" d="M503.916,105.095v301.811c0,23.812-19.304,43.116-43.116,43.116H51.2
	c-23.812,0-43.116-19.304-43.116-43.116V105.095h64.674V29.642c0-11.906,9.651-21.558,21.558-21.558h86.232
	c11.906,0,21.558,9.651,21.558,21.558v75.453H503.916z"/>
<path style="fill:#CFDFE2;" d="M450.021,261.389v118.568c0,11.906-9.651,21.558-21.558,21.558H83.537
	c-11.906,0-21.558-9.651-21.558-21.558V261.389c0-11.906,9.651-21.558,21.558-21.558h344.926
	C440.37,239.832,450.021,249.483,450.021,261.389z M83.537,196.716h97.011c11.906,0,21.558-9.651,21.558-21.558
	s-9.651-21.558-21.558-21.558H83.537c-11.906,0-21.558,9.651-21.558,21.558S71.63,196.716,83.537,196.716z M256,196.716h172.463
	c11.906,0,21.558-9.651,21.558-21.558S440.37,153.6,428.463,153.6H256c-11.906,0-21.558,9.651-21.558,21.558
	S244.094,196.716,256,196.716z"/>
<path style="fill:#C3E4ED;" d="M202.105,29.642v75.453H72.758V29.642c0-11.906,9.651-21.558,21.558-21.558h86.232
	C192.454,8.084,202.105,17.736,202.105,29.642z"/>
<path style="fill:#B2D1D8;" d="M180.547,45.811v21.558c0,5.953-4.826,10.779-10.779,10.779h-64.674
	c-5.953,0-10.779-4.826-10.779-10.779V45.811c0-5.953,4.826-10.779,10.779-10.779h64.674
	C175.722,35.032,180.547,39.857,180.547,45.811z"/>
<path style="fill:#80A886;" d="M428.463,390.737c0,62.507-50.672,113.179-113.179,113.179s-113.179-50.672-113.179-113.179
	s50.672-113.179,113.179-113.179S428.463,328.23,428.463,390.737z"/>
<path style="fill:#A3CCAA;" d="M386.794,390.737c0,39.494-32.017,71.511-71.511,71.511s-71.511-32.017-71.511-71.511
	s32.017-71.511,71.511-71.511S386.794,351.243,386.794,390.737z"/>
<path style="fill:#FFFFFF;" d="M382.868,397.592l-40.486,20.243l-20.243,40.486c-2.824,5.649-10.886,5.649-13.711,0l-20.243-40.486
	L247.7,397.592c-5.649-2.824-5.649-10.886,0-13.711l40.486-20.243l20.243-40.486c2.824-5.649,10.886-5.649,13.711,0l20.243,40.486
	l40.486,20.243C388.517,386.706,388.517,394.768,382.868,397.592z"/>
<path style="fill:#4C4C4C;" d="M460.8,32.337H210.189v-2.695C210.189,13.297,196.891,0,180.547,0H94.316
	C77.972,0,64.674,13.297,64.674,29.642v2.695H51.2c-28.231,0-51.2,22.969-51.2,51.2v323.368c0,28.231,22.969,51.2,51.2,51.2h161.684
	c0.52,0,1.028-0.049,1.521-0.142C236.171,490.521,273.266,512,315.284,512s79.113-21.479,100.879-54.037
	c0.493,0.094,1.001,0.142,1.521,0.142H460.8c28.231,0,51.2-22.969,51.2-51.2V83.537C512,55.306,489.031,32.337,460.8,32.337z
	 M80.842,29.642c0-7.43,6.044-13.474,13.474-13.474h86.232c7.43,0,13.474,6.044,13.474,13.474v67.368H80.842V29.642z M16.168,83.537
	c0-19.316,15.715-35.032,35.032-35.032h13.474v48.505H16.168V83.537z M315.284,495.832c-57.95,0-105.095-47.145-105.095-105.095
	s47.145-105.095,105.095-105.095s105.095,47.145,105.095,105.095S373.234,495.832,315.284,495.832z M495.832,406.905
	c0,19.316-15.715,35.032-35.032,35.032h-35.599c7.278-15.562,11.346-32.917,11.346-51.2c0-66.865-54.399-121.263-121.263-121.263
	s-121.263,54.398-121.263,121.263c0,18.283,4.068,35.638,11.346,51.2H51.2c-19.317,0-35.032-15.716-35.032-35.032V113.179h479.663
	V406.905z M495.832,97.011H210.189V48.505H460.8c19.317,0,35.032,15.716,35.032,35.032V97.011z M458.105,72.219v1.078
	c0,4.465-3.618,8.084-8.084,8.084s-8.084-3.62-8.084-8.084v-1.078c0-4.465,3.618-8.084,8.084-8.084S458.105,67.754,458.105,72.219z
	 M425.768,72.219v1.078c0,4.465-3.618,8.084-8.084,8.084c-4.466,0-8.084-3.62-8.084-8.084v-1.078c0-4.465,3.618-8.084,8.084-8.084
	C422.15,64.135,425.768,67.754,425.768,72.219z M393.432,72.219v1.078c0,4.465-3.618,8.084-8.084,8.084s-8.084-3.62-8.084-8.084
	v-1.078c0-4.465,3.618-8.084,8.084-8.084S393.432,67.754,393.432,72.219z M348.407,357.613l-19.038-38.076
	c-2.684-5.369-8.081-8.705-14.084-8.706c-0.001,0,0,0-0.001,0c-6.003,0-11.401,3.336-14.086,8.706l-19.038,38.076l-38.074,19.038
	c-5.37,2.685-8.706,8.082-8.706,14.086s3.336,11.402,8.705,14.086l38.076,19.039l19.038,38.077
	c2.686,5.369,8.084,8.705,14.087,8.705s11.4-3.336,14.084-8.706l19.038-38.076l38.077-19.039c5.369-2.685,8.705-8.082,8.705-14.086
	s-3.336-11.401-8.705-14.086L348.407,357.613z M338.766,410.605c-1.564,0.783-2.833,2.05-3.615,3.615l-19.869,39.734l-19.868-39.734
	c-0.783-1.565-2.05-2.833-3.615-3.615l-39.732-19.868l39.734-19.868c1.564-0.783,2.833-2.05,3.615-3.615l19.869-39.734
	l19.868,39.734c0.783,1.565,2.05,2.833,3.615,3.615l39.735,19.868L338.766,410.605z"/>
<g>
</g>
<g>
</g>
<g>
</g>
<g>
</g>
<g>
</g>
<g>
</g>
<g>
</g>
<g>
</g>
<g>
</g>
<g>
</g>
<g>
</g>
<g>
</g>
<g>
</g>
<g>
</g>
<g>
</g>
</svg>
