<?xml version="1.0" encoding="iso-8859-1"?>
<!-- Generator: Adobe Illustrator 19.0.0, SVG Export Plug-In . SVG Version: 6.00 Build 0)  -->
<svg version="1.1" id="Layer_1" xmlns="http://www.w3.org/2000/svg" xmlns:xlink="http://www.w3.org/1999/xlink" x="0px" y="0px"
	 viewBox="0 0 512 512" style="enable-background:new 0 0 512 512;" xml:space="preserve">
<path style="fill:#A5A5A5;" d="M503.916,83.537v32.337H8.084V83.537c0-23.812,19.304-43.116,43.116-43.116h409.6
	C484.612,40.421,503.916,59.725,503.916,83.537z"/>
<path style="fill:#E9F2F4;" d="M503.916,105.095v301.811c0,23.812-19.304,43.116-43.116,43.116H51.2
	c-23.812,0-43.116-19.304-43.116-43.116V105.095h64.674V29.642c0-11.906,9.651-21.558,21.558-21.558h86.232
	c11.906,0,21.558,9.651,21.558,21.558v75.453H503.916z"/>
<path style="fill:#C3E4ED;" d="M202.105,29.642v75.453H72.758V29.642c0-11.906,9.651-21.558,21.558-21.558h86.232
	C192.454,8.084,202.105,17.736,202.105,29.642z"/>
<path style="fill:#B2D1D8;" d="M180.547,45.811v21.558c0,5.953-4.826,10.779-10.779,10.779h-64.674
	c-5.953,0-10.779-4.826-10.779-10.779V45.811c0-5.953,4.826-10.779,10.779-10.779h64.674
	C175.722,35.032,180.547,39.857,180.547,45.811z"/>
<path style="fill:#CFDFE2;" d="M428.463,401.516H83.537c-11.906,0-21.558-9.651-21.558-21.558V261.389
	c0-11.906,9.651-21.558,21.558-21.558h344.926c11.906,0,21.558,9.651,21.558,21.558v118.568
	C450.021,391.864,440.37,401.516,428.463,401.516z M202.105,175.158L202.105,175.158c0-11.906-9.651-21.558-21.558-21.558H83.537
	c-11.906,0-21.558,9.651-21.558,21.558l0,0c0,11.906,9.651,21.558,21.558,21.558h97.011
	C192.454,196.716,202.105,187.064,202.105,175.158z M450.021,175.158L450.021,175.158c0-11.906-9.651-21.558-21.558-21.558H256
	c-11.906,0-21.558,9.651-21.558,21.558l0,0c0,11.906,9.651,21.558,21.558,21.558h172.463
	C440.37,196.716,450.021,187.064,450.021,175.158z"/>
<path style="fill:#84A7B7;" d="M382.5,281.4c0,25.934-21.023,46.957-46.957,46.957s-46.957-21.023-46.957-46.957
	s21.023-46.957,46.957-46.957S382.5,255.465,382.5,281.4z"/>
<path style="fill:#9AB7C1;" d="M416.04,441.558v62.357H255.045v-62.357c0-44.458,36.04-80.497,80.497-80.497l0,0
	C380,361.06,416.04,397.101,416.04,441.558z M324.515,245.221c-14.028,0-25.4,11.372-25.4,25.4c0,14.028,11.372,25.4,25.4,25.4
	c14.028,0,25.4-11.372,25.4-25.4S338.542,245.221,324.515,245.221z"/>
<path style="fill:#84A7B7;" d="M399.275,392.391c10.512,13.595,16.766,30.649,16.766,49.167v62.357H255.045v-43.543
	c2.078,0.272,4.193,0.427,6.344,0.427h32.337c26.789,0,48.505-21.716,48.505-48.505l0,0
	C342.232,381.999,380.745,368.423,399.275,392.391z"/>
<path style="fill:#4C4C4C;" d="M460.8,32.337H210.189v-2.695C210.189,13.298,196.893,0,180.547,0H94.316
	C77.971,0,64.674,13.298,64.674,29.642v2.695H51.2c-28.231,0-51.2,22.969-51.2,51.2v323.368c0,28.231,22.969,51.2,51.2,51.2h195.761
	v37.726h-22.527c-4.465,0-8.084,3.618-8.084,8.084s3.62,8.084,8.084,8.084h222.219c4.465,0,8.084-3.618,8.084-8.084
	s-3.62-8.084-8.084-8.084h-22.527v-37.726H460.8c28.231,0,51.2-22.969,51.2-51.2V83.537C512,55.306,489.031,32.337,460.8,32.337z
	 M80.842,29.642c0-7.43,6.044-13.474,13.474-13.474h86.232c7.43,0,13.474,6.044,13.474,13.474v67.368H80.842V29.642z M16.168,83.537
	c0-19.317,15.716-35.032,35.032-35.032h13.474v48.505H16.168V83.537z M407.956,495.832H263.129v-54.274
	c0-39.928,32.485-72.413,72.414-72.413s72.414,32.484,72.414,72.413v54.274H407.956z M495.832,406.905
	c0,19.317-15.716,35.032-35.032,35.032h-36.675v-0.379c0-48.844-39.738-88.581-88.582-88.581s-88.582,39.737-88.582,88.581v0.379
	H51.2c-19.316,0-35.032-15.715-35.032-35.032V113.179h479.663V406.905z M495.832,97.011H210.189V48.505H460.8
	c19.316,0,35.032,15.715,35.032,35.032V97.011z M501.221,503.916c0,4.466-3.62,8.084-8.084,8.084h-1.588
	c-4.465,0-8.084-3.618-8.084-8.084s3.62-8.084,8.084-8.084h1.588C497.601,495.832,501.221,499.45,501.221,503.916z M335.542,336.44
	c30.349,0,55.041-24.691,55.041-55.041c0-30.349-24.69-55.042-55.041-55.042s-55.042,24.691-55.042,55.041
	S305.193,336.44,335.542,336.44z M335.542,242.526c21.434,0,38.872,17.438,38.872,38.872c0,21.434-17.438,38.872-38.872,38.872
	c-21.435,0-38.873-17.438-38.873-38.872C296.669,259.965,314.108,242.526,335.542,242.526z M425.768,72.219v1.078
	c0,4.466-3.62,8.084-8.084,8.084c-4.465,0-8.084-3.618-8.084-8.084v-1.078c0-4.466,3.62-8.084,8.084-8.084
	C422.149,64.135,425.768,67.753,425.768,72.219z M393.432,72.219v1.078c0,4.466-3.62,8.084-8.084,8.084s-8.084-3.618-8.084-8.084
	v-1.078c0-4.466,3.62-8.084,8.084-8.084S393.432,67.753,393.432,72.219z M458.105,72.219v1.078c0,4.466-3.62,8.084-8.084,8.084
	s-8.084-3.618-8.084-8.084v-1.078c0-4.466,3.62-8.084,8.084-8.084S458.105,67.753,458.105,72.219z"/>
<g>
</g>
<g>
</g>
<g>
</g>
<g>
</g>
<g>
</g>
<g>
</g>
<g>
</g>
<g>
</g>
<g>
</g>
<g>
</g>
<g>
</g>
<g>
</g>
<g>
</g>
<g>
</g>
<g>
</g>
</svg>
