<?xml version="1.0" encoding="iso-8859-1"?>
<!-- Generator: Adobe Illustrator 19.0.0, SVG Export Plug-In . SVG Version: 6.00 Build 0)  -->
<svg version="1.1" id="Layer_1" xmlns="http://www.w3.org/2000/svg" xmlns:xlink="http://www.w3.org/1999/xlink" x="0px" y="0px"
	 viewBox="0 0 512 512" style="enable-background:new 0 0 512 512;" xml:space="preserve">
<path style="fill:#DBD8D2;" d="M503.916,428.463L503.916,428.463c0,23.812-19.304,43.116-43.116,43.116H51.2
	c-23.812,0-43.116-19.304-43.116-43.116l0,0c0-23.812,19.304-43.116,43.116-43.116h75.453h258.695H460.8
	C484.612,385.347,503.916,404.651,503.916,428.463z"/>
<path style="fill:#FC8059;" d="M396.126,436.547H288.337V29.642c0-11.906,9.651-21.558,21.558-21.558h64.674
	c11.906,0,21.558,9.651,21.558,21.558V436.547z"/>
<path style="fill:#BF5243;" d="M331.453,436.547H223.663V137.432c0-11.906,9.651-21.558,21.558-21.558h64.674
	c11.906,0,21.558,9.651,21.558,21.558V436.547z"/>
<path style="fill:#A3CCAA;" d="M309.895,436.547H202.105V115.874c0-11.906,9.651-21.558,21.558-21.558h64.674
	c11.906,0,21.558,9.651,21.558,21.558V436.547z"/>
<path style="fill:#80A886;" d="M245.221,436.547H137.432V202.105c0-11.906,9.651-21.558,21.558-21.558h64.674
	c11.906,0,21.558,9.651,21.558,21.558V436.547z"/>
<path style="fill:#FED766;" d="M223.663,436.547H115.874v-256c0-11.906,9.651-21.558,21.558-21.558h64.674
	c11.906,0,21.558,9.651,21.558,21.558V436.547z"/>
<path style="fill:#A5A5A5;" d="M460.8,256v43.116H148.211V256c0-11.906,9.651-21.558,21.558-21.558h269.474
	C451.148,234.442,460.8,244.094,460.8,256z"/>
<path style="fill:#E9F2F4;" d="M460.8,288.337v194.021c0,11.906-9.651,21.558-21.558,21.558H169.768
	c-11.906,0-21.558-9.651-21.558-21.558V288.337h43.116v-64.674c0-5.953,4.826-10.779,10.779-10.779h64.674
	c5.953,0,10.779,4.826,10.779,10.779v64.674H460.8z"/>
<path style="fill:#C3E4ED;" d="M277.558,223.663v64.674h-86.232v-64.674c0-5.953,4.826-10.779,10.779-10.779h64.674
	C272.732,212.884,277.558,217.71,277.558,223.663z"/>
<path style="fill:#B2D1D8;" d="M250.611,256h-32.337c-2.976,0-5.389-2.413-5.389-5.389v-10.779c0-2.976,2.413-5.389,5.389-5.389
	h32.337c2.976,0,5.389,2.413,5.389,5.389v10.779C256,253.587,253.587,256,250.611,256z"/>
<path style="fill:#CFDFE2;" d="M423.074,471.579H185.937c-2.976,0-5.389-2.413-5.389-5.389v-86.232c0-2.976,2.413-5.389,5.389-5.389
	h237.137c2.976,0,5.389,2.413,5.389,5.389v86.232C428.463,469.165,426.05,471.579,423.074,471.579z M256,347.621v-10.779
	c0-2.976-2.413-5.389-5.389-5.389h-64.674c-2.976,0-5.389,2.413-5.389,5.389v10.779c0,2.976,2.413,5.389,5.389,5.389h64.674
	C253.587,353.01,256,350.597,256,347.621z M428.463,347.621v-10.779c0-2.976-2.413-5.389-5.389-5.389H282.947
	c-2.976,0-5.389,2.413-5.389,5.389v10.779c0,2.976,2.413,5.389,5.389,5.389h140.126C426.05,353.01,428.463,350.597,428.463,347.621z
	"/>
<path style="fill:#4C4C4C;" d="M468.884,377.9V256c0-16.345-13.298-29.642-29.642-29.642h-35.032V29.642
	C404.211,13.297,390.913,0,374.568,0h-64.674c-16.344,0-29.642,13.297-29.642,29.642v56.589h-56.589
	c-16.344,0-29.642,13.297-29.642,29.642v35.032h-56.589c-16.344,0-29.642,13.297-29.642,29.642v196.716H51.2
	c-28.231,0-51.2,22.969-51.2,51.2s22.969,51.2,51.2,51.2h88.926v2.695c0,16.345,13.298,29.642,29.642,29.642h269.474
	c16.344,0,29.642-13.297,29.642-29.642v-3.332C493.289,475.139,512,453.945,512,428.463S493.289,381.788,468.884,377.9z
	 M296.421,29.642c0-7.43,6.044-13.474,13.474-13.474h64.674c7.43,0,13.474,6.044,13.474,13.474v196.716h-70.063V115.874
	c0-13.544-9.13-24.994-21.558-28.521V29.642z M210.189,115.874c0-7.43,6.044-13.474,13.474-13.474h64.674
	c7.43,0,13.474,6.044,13.474,13.474v110.484h-16.168v-2.695c0-10.401-8.463-18.863-18.863-18.863h-35.032v-24.253
	c0-13.544-9.13-24.994-21.558-28.521V115.874z M269.474,223.663v56.589h-70.063v-56.589c0-1.485,1.208-2.695,2.695-2.695h21.468
	c0.059,0.001,0.12,0.001,0.179,0h43.026C268.265,220.968,269.474,222.178,269.474,223.663z M140.126,463.495H51.2
	c-19.317,0-35.032-15.716-35.032-35.032s15.715-35.032,35.032-35.032h56.589v26.947H61.979c-4.466,0-8.084,3.62-8.084,8.084
	s3.618,8.084,8.084,8.084h78.147V463.495z M140.126,256v164.379h-16.168V180.547c0-7.43,6.044-13.474,13.474-13.474h64.674
	c7.43,0,13.474,6.044,13.474,13.474V204.8h-13.474c-10.401,0-18.863,8.463-18.863,18.863v2.695h-13.474
	C153.424,226.358,140.126,239.655,140.126,256z M183.242,242.526v37.726h-26.947V256c0-7.43,6.044-13.474,13.474-13.474H183.242z
	 M452.716,482.358c0,7.43-6.044,13.474-13.474,13.474H169.768c-7.43,0-13.474-6.044-13.474-13.474V296.421h296.421V482.358z
	 M452.716,280.253H285.642v-37.726h153.6c7.43,0,13.474,6.044,13.474,13.474V280.253z M468.884,462.553v-68.18
	c15.432,3.658,26.947,17.555,26.947,34.09C495.832,444.997,484.316,458.894,468.884,462.553z M371.874,260.851v1.078
	c0,4.465-3.618,8.084-8.084,8.084s-8.084-3.62-8.084-8.084v-1.078c0-4.465,3.618-8.084,8.084-8.084S371.874,256.386,371.874,260.851
	z M436.547,260.851v1.078c0,4.465-3.618,8.084-8.084,8.084s-8.084-3.62-8.084-8.084v-1.078c0-4.465,3.618-8.084,8.084-8.084
	S436.547,256.386,436.547,260.851z M404.211,260.851v1.078c0,4.465-3.618,8.084-8.084,8.084c-4.466,0-8.084-3.62-8.084-8.084v-1.078
	c0-4.465,3.618-8.084,8.084-8.084C400.592,252.766,404.211,256.386,404.211,260.851z"/>
<g>
</g>
<g>
</g>
<g>
</g>
<g>
</g>
<g>
</g>
<g>
</g>
<g>
</g>
<g>
</g>
<g>
</g>
<g>
</g>
<g>
</g>
<g>
</g>
<g>
</g>
<g>
</g>
<g>
</g>
</svg>
