<?xml version="1.0" encoding="iso-8859-1"?>
<!-- Generator: Adobe Illustrator 19.0.0, SVG Export Plug-In . SVG Version: 6.00 Build 0)  -->
<svg version="1.1" id="Layer_1" xmlns="http://www.w3.org/2000/svg" xmlns:xlink="http://www.w3.org/1999/xlink" x="0px" y="0px"
	 viewBox="0 0 512 512" style="enable-background:new 0 0 512 512;" xml:space="preserve">
<path style="fill:#D6A154;" d="M428.463,107.251c11.906,0,21.558,9.651,21.558,21.558v56.051c0,11.906-9.651,21.558-21.558,21.558
	c11.906,0,21.558,9.651,21.558,21.558v56.051c0,11.906-9.651,21.558-21.558,21.558c11.906,0,21.558,9.651,21.558,21.558v56.051
	c0,11.906-9.651,21.558-21.558,21.558c11.906,0,21.558,9.651,21.558,21.558v56.051c0,11.906-9.651,21.558-21.558,21.558H202.105
	c-11.906,0-21.558-9.651-21.558-21.558v-56.051c0-11.906,9.651-21.558,21.558-21.558c-11.906,0-21.558-9.651-21.558-21.558v-56.051
	c0-11.906,9.651-21.558,21.558-21.558c-11.906,0-21.558-9.651-21.558-21.558v-56.051c0-11.906,9.651-21.558,21.558-21.558
	c-11.906,0-21.558-9.651-21.558-21.558v-56.051c0-11.906,9.651-21.558,21.558-21.558c-11.906,0-21.558-9.651-21.558-21.558V29.642
	c0-11.906,9.651-21.558,21.558-21.558h226.358c11.906,0,21.558,9.651,21.558,21.558v56.051
	C450.021,97.599,440.37,107.251,428.463,107.251z"/>
<path style="fill:#B26932;" d="M450.021,29.642v56.051c0,11.906-9.651,21.558-21.558,21.558H202.105
	c-11.906,0-21.558-9.651-21.558-21.558V29.642c0-1.2,0.123-2.369,0.312-3.516c2.528,21.404,20.721,38.009,42.804,38.009h183.242
	c22.083,0,40.277-16.605,42.804-38.009C449.898,27.273,450.021,28.442,450.021,29.642z M406.905,164.661H223.663
	c-22.083,0-40.277-16.605-42.804-38.009c-0.189,1.147-0.312,2.315-0.312,3.516v56.051c0,11.906,9.651,21.558,21.558,21.558h226.358
	c11.906,0,21.558-9.651,21.558-21.558v-56.051c0-1.2-0.123-2.369-0.311-3.516C447.182,148.055,428.988,164.661,406.905,164.661z
	 M406.905,262.48H223.663c-22.083,0-40.277-16.605-42.804-38.009c-0.189,1.147-0.312,2.315-0.312,3.516v56.051
	c0,11.906,9.651,21.558,21.558,21.558h226.358c11.906,0,21.558-9.651,21.558-21.558v-56.051c0-1.2-0.123-2.369-0.311-3.516
	C447.182,245.874,428.988,262.48,406.905,262.48z M406.905,361.916H223.663c-22.083,0-40.277-16.605-42.804-38.009
	c-0.189,1.147-0.312,2.315-0.312,3.516v56.051c0,11.906,9.651,21.558,21.558,21.558h226.358c11.906,0,21.558-9.651,21.558-21.558
	v-56.051c0-1.2-0.123-2.369-0.311-3.516C447.182,345.31,428.988,361.916,406.905,361.916z M406.905,460.8H223.663
	c-22.083,0-40.277-16.605-42.804-38.009c-0.189,1.147-0.312,2.315-0.312,3.516v56.051c0,11.906,9.651,21.558,21.558,21.558h226.358
	c11.906,0,21.558-9.651,21.558-21.558v-56.051c0-1.2-0.123-2.369-0.311-3.516C447.182,444.195,428.988,460.8,406.905,460.8z"/>
<path style="fill:#E8BA52;" d="M320.674,374.568c0,71.436-57.911,129.347-129.347,129.347S61.979,446.005,61.979,374.568
	s57.911-129.347,129.347-129.347S320.674,303.132,320.674,374.568z"/>
<path style="fill:#FED766;" d="M299.116,374.568c0,59.53-48.26,107.789-107.789,107.789S83.537,434.098,83.537,374.568
	s48.26-107.789,107.789-107.789S299.116,315.038,299.116,374.568z"/>
<path style="fill:#FFED80;" d="M252.92,374.568c0,34.017-27.577,61.594-61.594,61.594s-61.594-27.577-61.594-61.594
	s27.577-61.594,61.594-61.594S252.92,340.551,252.92,374.568z"/>
<path style="fill:#AD8653;" d="M261.005,374.568c0-30.183-19.295-55.937-46.195-65.596v-20.635c0-4.465-3.62-8.084-8.084-8.084
	c-4.465,0-8.084,3.62-8.084,8.084v16.939c-2.405-0.252-4.844-0.386-7.315-0.386s-4.91,0.134-7.315,0.386v-16.939
	c0-4.465-3.62-8.084-8.084-8.084c-4.465,0-8.084,3.62-8.084,8.084v20.635c-26.9,9.659-46.195,35.413-46.195,65.596
	c0,30.183,19.295,55.937,46.195,65.596V460.8c0,4.465,3.62,8.084,8.084,8.084c4.465,0,8.084-3.62,8.084-8.084v-16.939
	c2.405,0.252,4.844,0.386,7.315,0.386s4.91-0.134,7.315-0.386V460.8c0,4.465,3.62,8.084,8.084,8.084c4.465,0,8.084-3.62,8.084-8.084
	v-20.635C241.709,430.506,261.005,404.752,261.005,374.568z M137.816,374.568c0-21.085,12.262-39.355,30.027-48.069v96.139
	C150.079,413.923,137.816,395.653,137.816,374.568z M191.326,428.078c-2.482,0-4.921-0.184-7.315-0.513V321.57
	c2.393-0.329,4.832-0.513,7.315-0.513c2.482,0,4.921,0.184,7.315,0.513v105.995C196.247,427.894,193.809,428.078,191.326,428.078z
	 M214.809,422.637v-96.139c17.765,8.714,30.027,26.984,30.027,48.069C244.836,395.652,232.573,413.923,214.809,422.637z"/>
<path style="fill:#4C4C4C;" d="M347.352,305.583c0,4.465-3.618,8.084-8.084,8.084h-1.078c-4.466,0-8.084-3.62-8.084-8.084
	c0-4.465,3.618-8.084,8.084-8.084h1.078C343.733,297.499,347.352,301.118,347.352,305.583z M448.788,107.251
	c5.733,5.409,9.317,13.072,9.317,21.558v56.051c0,8.486-3.583,16.149-9.317,21.558c5.733,5.409,9.317,13.072,9.317,21.558v56.051
	c0,8.486-3.583,16.149-9.317,21.558c5.733,5.409,9.317,13.072,9.317,21.558v56.051c0,8.486-3.583,16.149-9.317,21.558
	c5.733,5.409,9.317,13.072,9.317,21.558v56.051c0,16.345-13.298,29.642-29.642,29.642H202.105c-1.049,0-2.108-0.065-3.278-0.203
	c-2.483,0.135-4.985,0.203-7.501,0.203c-75.78,0-137.432-61.651-137.432-137.432c0-69.383,51.679-126.922,118.568-136.141v-10.452
	c0-8.486,3.584-16.149,9.317-21.558c-5.733-5.409-9.317-13.072-9.317-21.558v-56.051c0-8.486,3.584-16.149,9.317-21.558
	c-5.733-5.409-9.317-13.072-9.317-21.558V29.642C172.463,13.297,185.76,0,202.105,0h226.358c16.344,0,29.642,13.297,29.642,29.642
	v56.051C458.105,94.179,454.522,101.842,448.788,107.251z M312.589,374.568c0-66.865-54.399-121.263-121.263-121.263
	c-3.302,0-6.571,0.133-9.807,0.392c-0.195,0.024-0.392,0.04-0.592,0.049c-62.018,5.291-110.865,57.459-110.865,120.822
	c0,66.865,54.398,121.263,121.263,121.263c2.31,0,4.607-0.066,6.886-0.193c0.248-0.026,0.498-0.042,0.751-0.045
	C262.286,491.643,312.589,438.87,312.589,374.568z M441.937,29.642c0-7.43-6.044-13.474-13.474-13.474H202.105
	c-7.43,0-13.474,6.044-13.474,13.474v56.051c0,7.43,6.044,13.474,13.474,13.474h194.021c4.466,0,8.084,3.62,8.084,8.084
	s-3.618,8.084-8.084,8.084H202.105c-7.43,0-13.474,6.044-13.474,13.474v56.051c0,7.43,6.044,13.474,13.474,13.474h172.463
	c4.466,0,8.084,3.62,8.084,8.084c0,4.465-3.618,8.084-8.084,8.084H202.105c-7.43,0-13.474,6.044-13.474,13.474v9.188
	c0.898-0.017,1.793-0.026,2.695-0.026c75.78,0,137.432,61.651,137.432,137.432c0,52.432-29.513,98.099-72.799,121.263h172.504
	c7.43,0,13.474-6.044,13.474-13.474v-56.051c0-7.43-6.044-13.474-13.474-13.474h-64.404c-4.466,0-8.084-3.62-8.084-8.084
	s3.618-8.084,8.084-8.084h64.404c7.43,0,13.474-6.044,13.474-13.474v-56.051c0-7.43-6.044-13.474-13.474-13.474h-54.075
	c-4.466,0-8.084-3.62-8.084-8.084c0-4.465,3.618-8.084,8.084-8.084h54.075c7.43,0,13.474-6.044,13.474-13.474v-56.051
	c0-7.43-6.044-13.474-13.474-13.474c-4.466,0-8.084-3.62-8.084-8.084c0-4.465,3.618-8.084,8.084-8.084
	c7.43,0,13.474-6.044,13.474-13.474v-56.051c0-7.43-6.044-13.474-13.474-13.474c-4.466,0-8.084-3.62-8.084-8.084
	s3.618-8.084,8.084-8.084c7.43,0,13.474-6.044,13.474-13.474V29.642z M402.594,198.333h-2.156c-4.466,0-8.084,3.62-8.084,8.084
	c0,4.465,3.618,8.084,8.084,8.084h2.156c4.466,0,8.084-3.62,8.084-8.084C410.678,201.952,407.059,198.333,402.594,198.333z"/>
<g>
</g>
<g>
</g>
<g>
</g>
<g>
</g>
<g>
</g>
<g>
</g>
<g>
</g>
<g>
</g>
<g>
</g>
<g>
</g>
<g>
</g>
<g>
</g>
<g>
</g>
<g>
</g>
<g>
</g>
</svg>
