<?xml version="1.0" encoding="iso-8859-1"?>
<!-- Generator: Adobe Illustrator 19.0.0, SVG Export Plug-In . SVG Version: 6.00 Build 0)  -->
<svg version="1.1" id="Layer_1" xmlns="http://www.w3.org/2000/svg" xmlns:xlink="http://www.w3.org/1999/xlink" x="0px" y="0px"
	 viewBox="0 0 512 512" style="enable-background:new 0 0 512 512;" xml:space="preserve">
<path style="fill:#A384E2;" d="M309.895,450.021c0,29.765-24.13,53.895-53.895,53.895l0,0c-29.765,0-53.895-24.13-53.895-53.895
	V212.884h107.789V450.021z"/>
<path style="fill:#CDBDFF;" d="M223.663,471.579L223.663,471.579c-11.906,0-21.558-9.651-21.558-21.558V299.116
	c0-11.906,9.651-21.558,21.558-21.558l0,0c11.906,0,21.558,9.651,21.558,21.558v150.905
	C245.221,461.927,235.57,471.579,223.663,471.579z"/>
<path style="fill:#B69CF7;" d="M503.916,51.2L503.916,51.2c0,23.812-19.304,43.116-43.116,43.116h-10.779l-72.107,158.635
	c-21.73,47.808-69.399,78.502-121.914,78.502l0,0c-52.515,0-100.184-30.694-121.914-78.502L61.979,94.316H51.2
	c-23.812,0-43.116-19.304-43.116-43.116l0,0c0-23.812,19.304-43.116,43.116-43.116h409.6C484.612,8.084,503.916,27.388,503.916,51.2
	z"/>
<path style="fill:#CDBDFF;" d="M344.191,72.758v21.558l-52.441,115.37c-15.804,34.77-50.472,57.093-88.665,57.093l0,0
	c-38.193,0-72.86-22.323-88.665-57.093L61.979,94.316l0,0V72.758H344.191z"/>
<path style="fill:#A384E2;" d="M8.084,51.2h495.832c0,23.812-19.304,43.116-43.116,43.116H51.2
	C27.387,94.316,8.084,75.012,8.084,51.2z"/>
<path style="fill:#4C4C4C;" d="M460.8,0H51.2C22.969,0,0,22.969,0,51.2s22.969,51.2,51.2,51.2h5.573l69.952,153.895
	c13.935,30.656,38.07,54.736,67.295,68.945v124.78c0,34.176,27.803,61.979,61.979,61.979s61.979-27.803,61.979-61.979V325.242
	c29.225-14.211,53.36-38.289,67.295-68.946L455.227,102.4h5.573c28.231,0,51.2-22.969,51.2-51.2S489.031,0,460.8,0z
	 M301.811,450.021c0,25.26-20.55,45.811-45.811,45.811s-45.811-20.55-45.811-45.811v-118.11c14.526,4.97,29.972,7.626,45.811,7.626
	c15.84,0,31.285-2.656,45.811-7.626V450.021z M370.554,249.605c-20.368,44.81-65.332,73.764-114.554,73.764
	c-49.221,0-94.186-28.953-114.555-73.764L74.533,102.4h362.932L370.554,249.605z M309.895,59.284h184.995
	c-3.658,15.432-17.555,26.947-34.09,26.947h-10.596c-0.119-0.002-0.238-0.002-0.358,0H62.152c-0.119-0.002-0.238-0.002-0.357,0H51.2
	c-19.316,0-35.032-15.715-35.032-35.032S31.884,16.168,51.2,16.168h409.6c16.535,0,30.431,11.515,34.09,26.947H309.895
	c-4.465,0-8.084,3.618-8.084,8.084S305.43,59.284,309.895,59.284z M274.863,51.2c0,4.466-3.62,8.084-8.084,8.084h-1.078
	c-4.465,0-8.084-3.618-8.084-8.084s3.62-8.084,8.084-8.084h1.078C271.244,43.116,274.863,46.734,274.863,51.2z"/>
<g>
</g>
<g>
</g>
<g>
</g>
<g>
</g>
<g>
</g>
<g>
</g>
<g>
</g>
<g>
</g>
<g>
</g>
<g>
</g>
<g>
</g>
<g>
</g>
<g>
</g>
<g>
</g>
<g>
</g>
</svg>
