<?xml version="1.0" encoding="iso-8859-1"?>
<!-- Generator: Adobe Illustrator 19.0.0, SVG Export Plug-In . SVG Version: 6.00 Build 0)  -->
<svg version="1.1" id="Layer_1" xmlns="http://www.w3.org/2000/svg" xmlns:xlink="http://www.w3.org/1999/xlink" x="0px" y="0px"
	 viewBox="0 0 512 512" style="enable-background:new 0 0 512 512;" xml:space="preserve">
<path style="fill:#DBD8D2;" d="M51.2,417.751h75.453h75.453h107.789h75.453H460.8c23.812,0,43.116,19.289,43.116,43.082l0,0
	c0,23.793-19.304,43.082-43.116,43.082H51.2c-23.812,0-43.116-19.289-43.116-43.082l0,0C8.084,437.04,27.388,417.751,51.2,417.751z"
	/>
<path style="fill:#84A7B7;" d="M170.038,124.25c-3.652-4.624-3.652-12.121,0-16.745l72.737-92.101
	c7.304-9.248,19.146-9.248,26.449,0l72.737,92.101c3.652,4.624,3.652,12.121,0,16.745c-1.754,2.22-4.133,3.469-6.613,3.469h-25.454
	v341.194H202.105V127.719H176.65C174.169,127.719,171.792,126.47,170.038,124.25z"/>
<path style="fill:#FC8059;" d="M412.295,323.507c0,31.179-25.385,56.545-56.589,56.545h-26.947H183.242
	c-22.289,0-40.421,18.118-40.421,40.39c0,22.271,18.132,40.39,40.421,40.39h18.863v8.078h-47.976
	c-16.449-9.903-27.477-27.921-27.477-48.468c0-31.179,25.385-56.545,56.589-56.545h145.516h26.947
	c22.289,0,40.421-18.118,40.421-40.39s-18.132-40.39-40.421-40.39h-45.811v-16.155h45.811
	C386.909,266.962,412.295,292.328,412.295,323.507z M448.775,53.127l-33.082-41.888c-3.322-4.206-8.707-4.206-12.029,0
	l-33.082,41.888c-1.661,2.103-1.661,5.512,0,7.616c0.798,1.01,1.88,1.577,3.007,1.577h36.089v72.702
	c0,19.302-15.716,35.005-35.032,35.005h-56.668H183.242c-31.204,0-56.589,25.366-56.589,56.545s25.385,56.545,56.589,56.545h19.133
	v-16.155h-19.133c-22.289,0-40.421-18.118-40.421-40.39s18.132-40.39,40.421-40.39h134.737h56.669c28.231,0,51.2-22.951,51.2-51.16
	V62.321h19.921c1.127,0,2.21-0.567,3.007-1.577C450.436,58.64,450.436,55.23,448.775,53.127z"/>
<path style="fill:#4C4C4C;" d="M460.8,409.667H317.979v-15.072c0-4.466-3.618-8.084-8.084-8.084s-8.084,3.618-8.084,8.084v58.156
	h-91.621v-56.54c0-4.466-3.62-8.084-8.084-8.084c-4.465,0-8.084,3.618-8.084,8.084v13.456H171.81c-4.465,0-8.084,3.618-8.084,8.084
	s3.62,8.084,8.084,8.084h22.211v26.915h-18.863c-22.289,0-40.421-18.116-40.421-40.384c0-22.267,18.132-40.383,40.421-40.383
	h172.463c31.203,0,56.589-25.369,56.589-56.553s-25.387-56.552-56.589-56.552h-29.642v-56.54c0-4.466-3.618-8.083-8.084-8.083
	s-8.084,3.618-8.084,8.084v153.475h-91.621V202.338c0-4.466-3.62-8.084-8.084-8.084c-4.465,0-8.084,3.618-8.084,8.084v56.54h-18.863
	c-22.289,0-40.421-18.116-40.421-40.384c0-22.267,18.132-40.383,40.421-40.383h191.405c28.231,0,51.2-22.953,51.2-51.167v-56.54
	h28.005c3.608,0,7.015-1.693,9.35-4.649c0.001-0.001,0.002-0.002,0.003-0.004c3.968-5.026,3.968-12.607-0.001-17.635L422.039,6.229
	C418.914,2.27,414.408,0,409.68,0s-9.233,2.27-12.36,6.228l-33.081,41.887c-3.971,5.027-3.971,12.61,0.002,17.64
	c2.335,2.955,5.742,4.649,9.35,4.649h28.004v56.54c0,19.298-15.715,34.998-35.032,34.998h-48.584v-26.14h17.37
	c4.952,0,9.675-2.385,12.957-6.542c5.927-7.504,5.927-19.262,0-26.766L275.57,10.393C270.546,4.031,263.414,0.383,256,0.384
	c-7.412,0-14.545,3.649-19.568,10.009l-72.738,92.101c-5.926,7.504-5.926,19.262,0,26.766c3.283,4.157,8.007,6.542,12.957,6.542
	h17.37v26.14h-18.863c-31.204,0-56.589,25.369-56.589,56.553s25.385,56.552,56.589,56.552h18.863v80.768h-18.863
	c-30.299,0-55.113,23.917-56.526,53.853H51.2c-28.231,0-51.2,22.954-51.2,51.168C0,489.048,22.969,512,51.2,512h409.6
	c28.231,0,51.2-22.953,51.2-51.167C512,432.62,489.031,409.667,460.8,409.667z M317.979,275.046h29.642
	c22.289,0,40.421,18.116,40.421,40.383c0,22.268-18.132,40.384-40.421,40.384h-26.947h-2.695V275.046z M380.009,54.235l29.67-37.569
	l29.671,37.569h-29.671H380.009z M176.786,119.633c-0.081-0.053-0.229-0.174-0.404-0.395c-1.34-1.697-1.34-5.027,0-6.724
	l72.737-92.101c1.967-2.491,4.411-3.862,6.88-3.862c2.471-0.001,4.914,1.371,6.881,3.862l72.736,92.101
	c1.34,1.697,1.34,5.027-0.001,6.725c-0.174,0.221-0.322,0.341-0.403,0.393h-25.318c-4.466,0-8.084,3.618-8.084,8.084v34.224h-91.621
	v-34.224c0-4.466-3.62-8.084-8.084-8.084H176.786z M460.8,495.832H51.2c-19.316,0-35.032-15.7-35.032-34.998
	s15.716-34.999,35.032-34.999h68.99c2.549,10.389,7.979,19.659,15.39,26.915H61.979c-4.465,0-8.084,3.618-8.084,8.084
	s3.62,8.084,8.084,8.084h388.042c4.466,0,8.084-3.618,8.084-8.084s-3.618-8.084-8.084-8.084H317.979v-26.915H460.8
	c19.317,0,35.032,15.7,35.032,34.999C495.832,480.132,480.117,495.832,460.8,495.832z"/>
<g>
</g>
<g>
</g>
<g>
</g>
<g>
</g>
<g>
</g>
<g>
</g>
<g>
</g>
<g>
</g>
<g>
</g>
<g>
</g>
<g>
</g>
<g>
</g>
<g>
</g>
<g>
</g>
<g>
</g>
</svg>
