<?xml version="1.0" encoding="iso-8859-1"?>
<!-- Generator: Adobe Illustrator 19.0.0, SVG Export Plug-In . SVG Version: 6.00 Build 0)  -->
<svg version="1.1" id="Layer_1" xmlns="http://www.w3.org/2000/svg" xmlns:xlink="http://www.w3.org/1999/xlink" x="0px" y="0px"
	 viewBox="0 0 512 512" style="enable-background:new 0 0 512 512;" xml:space="preserve">
<path style="fill:#84A7B7;" d="M277.558,308.355v44.655c11.906,0,21.558,9.651,21.558,21.558v107.789
	c0,11.906-9.651,21.558-21.558,21.558h-43.116c-11.906,0-21.558-9.651-21.558-21.558V374.568c0-11.906,9.651-21.558,21.558-21.558
	v-44.655c-73.129-10.462-129.347-73.343-129.347-149.366C105.095,75.647,172.657,8.084,256,8.084s150.905,67.562,150.905,150.905
	C406.905,235.011,350.687,297.893,277.558,308.355z"/>
<path style="fill:#256277;" d="M277.558,353.01h-43.116v-44.655c7.042,1.008,14.237,1.539,21.558,1.539s14.516-0.532,21.558-1.539
	V353.01z"/>
<path style="fill:#C3E4ED;" d="M339.841,242.83c-46.304,46.304-121.377,46.304-167.681,0s-46.304-121.377,0-167.682
	s121.377-46.304,167.681,0S386.144,196.526,339.841,242.83z"/>
<path style="fill:#DCF3F9;" d="M331.87,67.875c2.737,2.285,5.4,4.704,7.97,7.274c13.723,13.723,23.377,29.973,28.966,47.252
	L219.41,271.797c-17.279-5.589-33.529-15.244-47.252-28.966c-2.57-2.57-4.988-5.233-7.274-7.97L331.87,67.875z M143.193,195.578
	c2.361,7.297,5.447,14.411,9.258,21.229L313.818,55.44c-6.818-3.811-13.932-6.897-21.229-9.258L143.193,195.578z"/>
<path style="fill:#FFFFFF;" d="M350.316,158.989c0,4.465-3.62,8.084-8.084,8.084c-4.465,0-8.084-3.62-8.084-8.084
	c0-43.091-35.056-78.147-78.147-78.147c-4.465,0-8.084-3.62-8.084-8.084s3.62-8.084,8.084-8.084
	C308.005,64.674,350.316,106.983,350.316,158.989z M331.453,192.943c-4.465,0-8.084,3.62-8.084,8.084v1.078
	c0,4.465,3.62,8.084,8.084,8.084s8.084-3.62,8.084-8.084v-1.078C339.537,196.563,335.917,192.943,331.453,192.943z"/>
<path style="fill:#4C4C4C;" d="M414.989,158.989C414.989,71.322,343.667,0,256,0S97.011,71.322,97.011,158.989
	c0,77.538,55.799,142.291,129.347,156.219v30.839c-12.428,3.527-21.558,14.978-21.558,28.521v107.789
	c0,16.345,13.297,29.642,29.642,29.642h43.116c16.345,0,29.642-13.297,29.642-29.642V374.568c0-13.544-9.13-24.994-21.558-28.521
	v-30.839C359.19,301.28,414.989,236.528,414.989,158.989z M291.032,374.568v107.789c0,7.43-6.044,13.474-13.474,13.474h-43.116
	c-7.43,0-13.474-6.044-13.474-13.474V374.568c0-7.43,6.044-13.474,13.474-13.474h43.116
	C284.988,361.095,291.032,367.138,291.032,374.568z M242.526,344.926v-27.513c8.884,0.749,18.063,0.749,26.947,0v27.513H242.526z
	 M276.661,300.32c-0.177,0.019-0.351,0.045-0.524,0.075c-6.582,0.933-13.302,1.415-20.137,1.415s-13.556-0.482-20.137-1.415
	c-0.172-0.03-0.347-0.056-0.524-0.075c-69-10.037-122.16-69.591-122.16-141.33c0-78.752,64.069-142.821,142.821-142.821
	s142.821,64.069,142.821,142.821C398.821,230.729,345.661,290.282,276.661,300.32z M256,32.337
	c-69.837,0-126.653,56.816-126.653,126.653S186.163,285.642,256,285.642s126.653-56.816,126.653-126.653S325.837,32.337,256,32.337z
	 M256,269.474c-60.922,0-110.484-49.563-110.484-110.484S195.078,48.505,256,48.505s110.484,49.563,110.484,110.484
	S316.922,269.474,256,269.474z"/>
<g>
</g>
<g>
</g>
<g>
</g>
<g>
</g>
<g>
</g>
<g>
</g>
<g>
</g>
<g>
</g>
<g>
</g>
<g>
</g>
<g>
</g>
<g>
</g>
<g>
</g>
<g>
</g>
<g>
</g>
</svg>
