<?xml version="1.0" encoding="iso-8859-1"?>
<!-- Generator: Adobe Illustrator 19.0.0, SVG Export Plug-In . SVG Version: 6.00 Build 0)  -->
<svg version="1.1" id="Layer_1" xmlns="http://www.w3.org/2000/svg" xmlns:xlink="http://www.w3.org/1999/xlink" x="0px" y="0px"
	 viewBox="0 0 512 512" style="enable-background:new 0 0 512 512;" xml:space="preserve">
<path style="fill:#A5A5A5;" d="M503.916,83.537v32.337H8.084V83.537c0-23.812,19.304-43.116,43.116-43.116h409.6
	C484.612,40.421,503.916,59.725,503.916,83.537z"/>
<path style="fill:#FFE6AE;" d="M503.916,105.095v301.811c0,23.812-19.304,43.116-43.116,43.116H51.2
	c-23.812,0-43.116-19.304-43.116-43.116V105.095h64.674V29.642c0-11.906,9.651-21.558,21.558-21.558h86.232
	c11.906,0,21.558,9.651,21.558,21.558v75.453H503.916z"/>
<path style="fill:#FCC159;" d="M202.105,29.642v75.453H72.758V29.642c0-11.906,9.651-21.558,21.558-21.558h86.232
	C192.454,8.084,202.105,17.736,202.105,29.642z"/>
<path style="fill:#FFA522;" d="M180.547,45.811v21.558c0,5.953-4.826,10.779-10.779,10.779h-64.674
	c-5.953,0-10.779-4.826-10.779-10.779V45.811c0-5.953,4.826-10.779,10.779-10.779h64.674
	C175.722,35.032,180.547,39.857,180.547,45.811z"/>
<path style="fill:#FFD880;" d="M450.021,261.389v118.568c0,11.906-9.651,21.558-21.558,21.558H83.537
	c-11.906,0-21.558-9.651-21.558-21.558V261.389c0-11.906,9.651-21.558,21.558-21.558h344.926
	C440.37,239.832,450.021,249.483,450.021,261.389z M83.537,196.716h97.011c11.906,0,21.558-9.651,21.558-21.558
	s-9.651-21.558-21.558-21.558H83.537c-11.906,0-21.558,9.651-21.558,21.558S71.63,196.716,83.537,196.716z M256,196.716h172.463
	c11.906,0,21.558-9.651,21.558-21.558S440.37,153.6,428.463,153.6H256c-11.906,0-21.558,9.651-21.558,21.558
	S244.094,196.716,256,196.716z"/>
<path style="fill:#D0F7D6;" d="M450.021,262.467V460.8c0,23.812-19.304,43.116-43.116,43.116H274.241
	c-23.812,0-43.116-19.304-43.116-43.116V262.467c0-23.812,19.304-43.116,43.116-43.116h132.664
	C430.717,219.352,450.021,238.656,450.021,262.467z"/>
<path style="fill:#A3CCAA;" d="M329.626,219.352l-98.5,211.234V262.467c0-23.812,19.304-43.116,43.116-43.116H329.626z
	 M444.248,240.927l-98.424,211.071h-72.457l108.485-232.646h-28.074l-112.28,240.786h-10.373v0.663
	c0,23.812,19.304,43.116,43.116,43.116h132.664c23.812,0,43.116-19.304,43.116-43.116V262.467
	C450.021,254.618,447.913,247.266,444.248,240.927z"/>
<path style="fill:#777777;" d="M450.021,445.543V460.8c0,23.812-19.304,43.116-43.116,43.116H274.241
	c-23.812,0-43.116-19.304-43.116-43.116v-15.257H450.021z"/>
<path style="fill:#4C4C4C;" d="M317.896,474.73c0-4.466,3.62-8.084,8.084-8.084h29.186c4.465,0,8.084,3.618,8.084,8.084
	s-3.62,8.084-8.084,8.084H325.98C321.516,482.814,317.896,479.194,317.896,474.73z M512,83.537v323.368
	c0,28.231-22.969,51.2-51.2,51.2h-2.695v2.695c0,28.231-22.969,51.2-51.2,51.2H274.241c-28.231,0-51.2-22.969-51.2-51.2v-2.695H51.2
	c-28.231,0-51.2-22.969-51.2-51.2V83.537c0-28.231,22.969-51.2,51.2-51.2h13.474v-2.695C64.674,13.298,77.971,0,94.316,0h86.232
	c16.345,0,29.642,13.298,29.642,29.642v2.695H460.8C489.031,32.337,512,55.306,512,83.537z M80.842,97.011h113.179V29.642
	c0-7.43-6.044-13.474-13.474-13.474H94.316c-7.43,0-13.474,6.044-13.474,13.474V97.011z M16.168,97.011h48.505V48.505H51.2
	c-19.316,0-35.032,15.715-35.032,35.032V97.011z M441.937,453.628H239.21v7.172c0,19.317,15.716,35.032,35.032,35.032h132.664
	c19.316,0,35.032-15.715,35.032-35.032V453.628z M441.937,262.467c0-19.317-15.716-35.032-35.032-35.032H274.241
	c-19.316,0-35.032,15.715-35.032,35.032v174.992h202.727V262.467z M495.832,113.179H16.168v293.726
	c0,19.317,15.716,35.032,35.032,35.032h171.841V262.467c0-28.231,22.969-51.2,51.2-51.2h132.664c28.231,0,51.2,22.969,51.2,51.2
	v179.469h2.695c19.316,0,35.032-15.715,35.032-35.032V113.179z M495.832,83.537c0-19.317-15.716-35.032-35.032-35.032H210.189
	v48.505h285.642V83.537z M450.021,64.135c-4.465,0-8.084,3.618-8.084,8.084v1.078c0,4.466,3.62,8.084,8.084,8.084
	s8.084-3.618,8.084-8.084v-1.078C458.105,67.753,454.486,64.135,450.021,64.135z M417.684,64.135c-4.465,0-8.084,3.618-8.084,8.084
	v1.078c0,4.466,3.62,8.084,8.084,8.084c4.465,0,8.084-3.618,8.084-8.084v-1.078C425.768,67.753,422.149,64.135,417.684,64.135z
	 M385.347,64.135c-4.465,0-8.084,3.618-8.084,8.084v1.078c0,4.466,3.62,8.084,8.084,8.084s8.084-3.618,8.084-8.084v-1.078
	C393.432,67.753,389.812,64.135,385.347,64.135z"/>
<g>
</g>
<g>
</g>
<g>
</g>
<g>
</g>
<g>
</g>
<g>
</g>
<g>
</g>
<g>
</g>
<g>
</g>
<g>
</g>
<g>
</g>
<g>
</g>
<g>
</g>
<g>
</g>
<g>
</g>
</svg>
