<?xml version="1.0" encoding="iso-8859-1"?>
<!-- Generator: Adobe Illustrator 19.0.0, SVG Export Plug-In . SVG Version: 6.00 Build 0)  -->
<svg version="1.1" id="Layer_1" xmlns="http://www.w3.org/2000/svg" xmlns:xlink="http://www.w3.org/1999/xlink" x="0px" y="0px"
	 viewBox="0 0 512 512" style="enable-background:new 0 0 512 512;" xml:space="preserve">
<path style="fill:#DBD8D2;" d="M503.916,428.463L503.916,428.463c0,23.812-19.304,43.116-43.116,43.116H51.2
	c-23.812,0-43.116-19.304-43.116-43.116l0,0c0-23.812,19.304-43.116,43.116-43.116h75.453h258.695H460.8
	C484.612,385.347,503.916,404.651,503.916,428.463z"/>
<path style="fill:#FC8059;" d="M396.126,436.547H288.337V29.642c0-11.906,9.651-21.558,21.558-21.558h64.674
	c11.906,0,21.558,9.651,21.558,21.558V436.547z"/>
<path style="fill:#BF5243;" d="M331.453,436.547H223.663V137.432c0-11.906,9.651-21.558,21.558-21.558h64.674
	c11.906,0,21.558,9.651,21.558,21.558V436.547z"/>
<path style="fill:#A3CCAA;" d="M309.895,436.547H202.105V115.874c0-11.906,9.651-21.558,21.558-21.558h64.674
	c11.906,0,21.558,9.651,21.558,21.558V436.547z"/>
<path style="fill:#80A886;" d="M245.221,436.547H137.432V202.105c0-11.906,9.651-21.558,21.558-21.558h64.674
	c11.906,0,21.558,9.651,21.558,21.558V436.547z"/>
<path style="fill:#FED766;" d="M223.663,436.547H115.874v-256c0-11.906,9.651-21.558,21.558-21.558h64.674
	c11.906,0,21.558,9.651,21.558,21.558V436.547z"/>
<path style="fill:#AD8653;" d="M191.326,266.779h237.137c11.906,0,21.558,9.651,21.558,21.558v194.021
	c0,11.906-9.651,21.558-21.558,21.558H191.326c-11.906,0-21.558-9.651-21.558-21.558V288.337
	C169.768,276.43,179.42,266.779,191.326,266.779z"/>
<path style="fill:#7F5233;" d="M277.558,320.674c0,11.906-9.651,21.558-21.558,21.558c-11.906,0-21.558-9.651-21.558-21.558
	c0-11.906,9.651-21.558,21.558-21.558C267.906,299.116,277.558,308.767,277.558,320.674z M363.789,299.116
	c-11.906,0-21.558,9.651-21.558,21.558c0,11.906,9.651,21.558,21.558,21.558s21.558-9.651,21.558-21.558
	C385.347,308.767,375.696,299.116,363.789,299.116z"/>
<path style="fill:#4C4C4C;" d="M460.8,377.263h-2.695v-88.926c0-16.345-13.298-29.642-29.642-29.642h-24.253V29.642
	C404.211,13.297,390.913,0,374.568,0h-64.674c-16.344,0-29.642,13.297-29.642,29.642v56.589h-56.589
	c-16.344,0-29.642,13.297-29.642,29.642v35.032h-56.589c-16.344,0-29.642,13.297-29.642,29.642v196.716H51.2
	c-28.231,0-51.2,22.969-51.2,51.2s22.969,51.2,51.2,51.2h110.484v2.695c0,16.345,13.298,29.642,29.642,29.642h237.137
	c16.344,0,29.642-13.297,29.642-29.642v-2.695h2.695c28.231,0,51.2-22.969,51.2-51.2S489.031,377.263,460.8,377.263z
	 M296.421,29.642c0-7.43,6.044-13.474,13.474-13.474h64.674c7.43,0,13.474,6.044,13.474,13.474v229.053h-16.168V256
	c0-31.437-23.524-57.482-53.895-61.454v-78.672c0-13.544-9.13-24.994-21.558-28.521V29.642z M363.789,328.758
	c4.466,0,8.084-3.62,8.084-8.084v-10.772c3.27,2.461,5.389,6.374,5.389,10.772c0,7.43-6.044,13.474-13.474,13.474
	s-13.474-6.044-13.474-13.474c0-4.399,2.119-8.312,5.389-10.772v10.772C355.705,325.138,359.324,328.758,363.789,328.758z
	 M355.705,258.695h-37.726v-47.791c21.418,3.83,37.726,22.594,37.726,45.096V258.695z M210.189,115.874
	c0-7.43,6.044-13.474,13.474-13.474h64.674c7.43,0,13.474,6.044,13.474,13.474v78.672c-30.371,3.973-53.895,30.018-53.895,61.454
	v2.695h-16.168v-78.147c0-13.544-9.13-24.994-21.558-28.521V115.874z M301.811,210.904v47.791h-37.726V256
	C264.084,233.498,280.393,214.733,301.811,210.904z M256,328.758c4.466,0,8.084-3.62,8.084-8.084v-10.772
	c3.27,2.461,5.389,6.374,5.389,10.772c0,7.43-6.044,13.474-13.474,13.474c-7.43,0-13.474-6.044-13.474-13.474
	c0-4.399,2.119-8.312,5.389-10.772v10.772C247.916,325.138,251.534,328.758,256,328.758z M161.684,463.495H51.2
	c-19.317,0-35.032-15.716-35.032-35.032s15.715-35.032,35.032-35.032h56.589v26.947H61.979c-4.466,0-8.084,3.62-8.084,8.084
	s3.618,8.084,8.084,8.084h99.705V463.495z M161.684,288.337v132.042h-37.726V180.547c0-7.43,6.044-13.474,13.474-13.474h64.674
	c7.43,0,13.474,6.044,13.474,13.474v78.147h-24.253C174.982,258.695,161.684,271.992,161.684,288.337z M441.937,482.358
	c0,7.43-6.044,13.474-13.474,13.474H191.326c-7.43,0-13.474-6.044-13.474-13.474v-53.895V288.337c0-7.43,6.044-13.474,13.474-13.474
	h56.589v17.289c-12.428,3.527-21.558,14.978-21.558,28.521c0,16.345,13.298,29.642,29.642,29.642s29.642-13.297,29.642-29.642
	c0-13.544-9.13-24.994-21.558-28.521v-17.289h45.721c0.059,0.001,0.12,0.001,0.179,0h45.721v17.289
	c-12.428,3.527-21.558,14.978-21.558,28.521c0,16.345,13.298,29.642,29.642,29.642s29.642-13.297,29.642-29.642
	c0-13.544-9.13-24.994-21.558-28.521v-17.289h56.589c7.43,0,13.474,6.044,13.474,13.474V482.358z M460.8,463.495h-2.695v-70.063
	h2.695c19.317,0,35.032,15.716,35.032,35.032S480.117,463.495,460.8,463.495z"/>
<g>
</g>
<g>
</g>
<g>
</g>
<g>
</g>
<g>
</g>
<g>
</g>
<g>
</g>
<g>
</g>
<g>
</g>
<g>
</g>
<g>
</g>
<g>
</g>
<g>
</g>
<g>
</g>
<g>
</g>
</svg>
