<?xml version="1.0" encoding="iso-8859-1"?>
<!-- Generator: Adobe Illustrator 19.0.0, SVG Export Plug-In . SVG Version: 6.00 Build 0)  -->
<svg version="1.1" id="Layer_1" xmlns="http://www.w3.org/2000/svg" xmlns:xlink="http://www.w3.org/1999/xlink" x="0px" y="0px"
	 viewBox="0 0 512 512" style="enable-background:new 0 0 512 512;" xml:space="preserve">
<path style="fill:#E8BA52;" d="M417.684,126.653V460.8c0,23.812-19.304,43.116-43.116,43.116H137.432
	c-23.812,0-43.116-19.304-43.116-43.116V126.653c0-23.812,19.304-43.116,43.116-43.116h237.137
	C398.38,83.537,417.684,102.841,417.684,126.653z"/>
<path style="fill:#FED766;" d="M413.092,107.297L258.305,439.242H151.265L317.134,83.537h57.435
	C391.418,83.537,406,93.208,413.092,107.297z M239.826,83.537L94.316,395.586v43.656h15.322L275.507,83.537H239.826z"/>
<path style="fill:#AD8653;" d="M417.684,417.684V460.8c0,23.812-19.304,43.116-43.116,43.116H137.432
	c-23.812,0-43.116-19.304-43.116-43.116v-43.116H417.684z"/>
<path style="fill:#7F5233;" d="M223.663,148.211c0,11.906-9.651,21.558-21.558,21.558s-21.558-9.651-21.558-21.558
	c0-11.906,9.651-21.558,21.558-21.558S223.663,136.304,223.663,148.211z M309.895,126.653c-11.906,0-21.558,9.651-21.558,21.558
	c0,11.906,9.651,21.558,21.558,21.558c11.906,0,21.558-9.651,21.558-21.558C331.453,136.304,321.801,126.653,309.895,126.653z"/>
<path style="fill:#4C4C4C;" d="M374.568,75.453h-56.589V61.979C317.979,27.803,290.176,0,256,0s-61.979,27.803-61.979,61.979v13.474
	h-56.589c-28.231,0-51.2,22.969-51.2,51.2V460.8c0,28.231,22.969,51.2,51.2,51.2h237.137c28.231,0,51.2-22.969,51.2-51.2V126.653
	C425.768,98.421,402.8,75.453,374.568,75.453z M309.895,156.295c4.465,0,8.084-3.618,8.084-8.084v-10.772
	c3.271,2.461,5.389,6.374,5.389,10.772c0,7.43-6.044,13.474-13.474,13.474s-13.474-6.044-13.474-13.474
	c0-4.399,2.118-8.312,5.389-10.772v10.772C301.811,152.676,305.43,156.295,309.895,156.295z M210.189,61.979
	c0-25.26,20.55-45.811,45.811-45.811s45.811,20.55,45.811,45.811v13.474h-91.621V61.979z M202.105,156.295
	c4.465,0,8.084-3.618,8.084-8.084v-10.772c3.271,2.461,5.389,6.374,5.389,10.772c0,7.43-6.044,13.474-13.474,13.474
	s-13.474-6.044-13.474-13.474c0-4.399,2.118-8.312,5.389-10.772v10.772C194.021,152.676,197.641,156.295,202.105,156.295z
	 M409.6,460.8c0,19.317-15.716,35.032-35.032,35.032H137.432c-19.316,0-35.032-15.715-35.032-35.032v-35.032h307.2V460.8z
	 M409.6,409.6H102.4V126.653c0-19.317,15.716-35.032,35.032-35.032h56.589v28.067c-12.428,3.527-21.558,14.978-21.558,28.522
	c0,16.344,13.297,29.642,29.642,29.642s29.642-13.298,29.642-29.642c0-13.543-9.13-24.994-21.558-28.522V91.621h91.621v28.067
	c-12.428,3.527-21.558,14.978-21.558,28.522c0,16.344,13.297,29.642,29.642,29.642c16.345,0,29.642-13.298,29.642-29.642
	c0-13.543-9.13-24.994-21.558-28.522V91.621h56.589c19.316,0,35.032,15.715,35.032,35.032V409.6z M226.358,460.8
	c0-4.466,3.62-8.084,8.084-8.084h43.116c4.465,0,8.084,3.618,8.084,8.084s-3.62,8.084-8.084,8.084h-43.116
	C229.977,468.884,226.358,465.266,226.358,460.8z"/>
<g>
</g>
<g>
</g>
<g>
</g>
<g>
</g>
<g>
</g>
<g>
</g>
<g>
</g>
<g>
</g>
<g>
</g>
<g>
</g>
<g>
</g>
<g>
</g>
<g>
</g>
<g>
</g>
<g>
</g>
</svg>
