<?xml version="1.0" encoding="iso-8859-1"?>
<!-- Generator: Adobe Illustrator 19.0.0, SVG Export Plug-In . SVG Version: 6.00 Build 0)  -->
<svg version="1.1" id="Layer_1" xmlns="http://www.w3.org/2000/svg" xmlns:xlink="http://www.w3.org/1999/xlink" x="0px" y="0px"
	 viewBox="0 0 512 512" style="enable-background:new 0 0 512 512;" xml:space="preserve">
<path style="fill:#DBD8D2;" d="M503.916,460.8L503.916,460.8c0,23.812-19.304,43.116-43.116,43.116H51.2
	c-23.812,0-43.116-19.304-43.116-43.116l0,0c0-23.812,19.304-43.116,43.116-43.116h409.6
	C484.612,417.684,503.916,436.988,503.916,460.8z"/>
<path style="fill:#A384E2;" d="M331.453,83.537c0,41.671-33.781,75.453-75.453,75.453s-75.453-33.781-75.453-75.453
	S214.329,8.084,256,8.084S331.453,41.865,331.453,83.537z"/>
<path style="fill:#B69CF7;" d="M385.347,331.453v137.432H126.653V331.453c0-71.436,57.911-129.347,129.347-129.347l0,0
	C327.436,202.105,385.347,260.016,385.347,331.453z M245.221,29.642c-23.812,0-43.116,19.304-43.116,43.116
	s19.304,43.116,43.116,43.116s43.116-19.304,43.116-43.116S269.033,29.642,245.221,29.642z"/>
<path style="fill:#A384E2;" d="M383.901,312.045c0.953,6.33,1.447,12.812,1.447,19.408v137.432H126.653v-96.465
	c17.796,27.251,48.56,45.265,83.537,45.265l0,0c55.065,0,99.705-44.64,99.705-99.705l0,0
	C309.895,272.148,377.081,266.724,383.901,312.045z"/>
<path style="fill:#4C4C4C;" d="M256,167.074c46.062,0,83.537-37.475,83.537-83.537S302.062,0,256,0s-83.537,37.475-83.537,83.537
	S209.938,167.074,256,167.074z M256,16.168c37.146,0,67.368,30.222,67.368,67.368S293.146,150.905,256,150.905
	s-67.368-30.222-67.368-67.368S218.854,16.168,256,16.168z M460.8,409.6h-67.368v-78.147c0-75.78-61.651-137.432-137.432-137.432
	s-137.432,61.651-137.432,137.432V409.6H51.2C22.969,409.6,0,432.569,0,460.8C0,489.031,22.969,512,51.2,512h409.6
	c28.231,0,51.2-22.969,51.2-51.2C512,432.569,489.031,409.6,460.8,409.6z M134.737,331.453c0-66.865,54.398-121.263,121.263-121.263
	s121.263,54.398,121.263,121.263v121.263H134.737V331.453z M460.8,495.832H51.2c-19.316,0-35.032-15.716-35.032-35.032
	s15.716-35.032,35.032-35.032h67.368v26.947H61.979c-4.465,0-8.084,3.62-8.084,8.084c0,4.465,3.62,8.084,8.084,8.084h388.042
	c4.465,0,8.084-3.62,8.084-8.084c0-4.465-3.62-8.084-8.084-8.084h-56.589v-26.947H460.8c19.316,0,35.032,15.716,35.032,35.032
	S480.116,495.832,460.8,495.832z"/>
<g>
</g>
<g>
</g>
<g>
</g>
<g>
</g>
<g>
</g>
<g>
</g>
<g>
</g>
<g>
</g>
<g>
</g>
<g>
</g>
<g>
</g>
<g>
</g>
<g>
</g>
<g>
</g>
<g>
</g>
</svg>
