<?xml version="1.0" encoding="iso-8859-1"?>
<!-- Generator: Adobe Illustrator 19.0.0, SVG Export Plug-In . SVG Version: 6.00 Build 0)  -->
<svg version="1.1" id="Layer_1" xmlns="http://www.w3.org/2000/svg" xmlns:xlink="http://www.w3.org/1999/xlink" x="0px" y="0px"
	 viewBox="0 0 512 512" style="enable-background:new 0 0 512 512;" xml:space="preserve">
<path style="fill:#FED766;" d="M503.916,256L503.916,256c0,23.812-19.304,43.116-43.116,43.116h-15.595
	C425.598,385.518,348.335,450.021,256,450.021S86.402,385.518,66.795,299.116H51.2c-23.812,0-43.116-19.304-43.116-43.116l0,0
	c0-23.812,19.304-43.116,43.116-43.116h15.595C86.402,126.482,163.665,61.979,256,61.979s169.598,64.503,189.205,150.905H460.8
	C484.612,212.884,503.916,232.188,503.916,256z"/>
<path style="fill:#E8BA52;" d="M8.084,256h495.832c0,23.812-19.304,43.116-43.116,43.116h-15.595
	C425.598,385.518,348.335,450.021,256,450.021S86.402,385.518,66.795,299.116H51.2C27.388,299.116,8.084,279.812,8.084,256z"/>
<path style="fill:#DCF3F9;" d="M364.529,208.198c6.451,14.624,10.04,30.793,10.04,47.802c0,65.483-53.085,118.568-118.568,118.568
	S137.432,321.483,137.432,256S190.517,137.432,256,137.432c17.01,0,33.179,3.589,47.802,10.04c7.486-6.265,17.126-10.04,27.65-10.04
	c23.812,0,43.116,19.304,43.116,43.116C374.568,191.072,370.793,200.712,364.529,208.198z"/>
<path style="fill:#84A7B7;" d="M364.529,208.198c6.45,14.624,10.04,30.793,10.04,47.802c0,65.483-53.085,118.568-118.568,118.568
	S137.432,321.483,137.432,256S190.517,137.432,256,137.432c17.01,0,33.179,3.589,47.802,10.04
	c-9.451,7.91-15.466,19.788-15.466,33.076c0,23.812,19.304,43.116,43.116,43.116C344.74,223.663,356.619,217.648,364.529,208.198z"
	/>
<path style="fill:#FFFFFF;" d="M328.758,256c0,40.119-32.639,72.758-72.758,72.758S183.242,296.119,183.242,256
	c0-23.174,10.658-44.428,29.242-58.315c3.578-2.672,8.644-1.939,11.316,1.636c2.672,3.576,1.94,8.643-1.636,11.316
	c-14.46,10.805-22.753,27.339-22.753,45.363c0,31.204,25.385,56.589,56.589,56.589s56.589-25.385,56.589-56.589l-0.005-0.142
	c-0.006-0.18-0.012-0.36-0.014-0.542c-0.054-4.465,3.521-8.127,7.986-8.181c0.032,0,0.067,0,0.099,0
	c4.419,0,8.028,3.555,8.082,7.987l0.005,0.158C328.751,255.519,328.758,255.759,328.758,256z M254.285,199.433
	c0.071,0,0.142-0.001,0.213-0.002c0.498-0.013,0.998-0.019,1.483-0.019l0.16,0.005c0.18,0.006,0.36,0.012,0.542,0.014
	c0.033,0,0.066,0,0.099,0c4.413,0,8.007-3.547,8.068-7.972c0.061-4.459-3.513-8.126-7.971-8.195l-0.161-0.005
	c-0.875-0.03-1.762-0.013-2.64,0.01c-4.464,0.115-7.988,3.828-7.872,8.291C246.322,195.95,249.917,199.433,254.285,199.433z"/>
<path style="fill:#4C4C4C;" d="M460.8,204.8h-9.248c-10.85-41.46-35.035-78.928-68.594-106.056
	C347.181,69.823,302.093,53.895,256,53.895c-46.094,0-91.181,15.928-126.959,44.849C95.482,125.872,71.298,163.34,60.448,204.8H51.2
	C22.969,204.8,0,227.769,0,256s22.969,51.2,51.2,51.2h9.248c10.849,41.46,35.034,78.928,68.593,106.056
	c35.777,28.921,80.865,44.849,126.959,44.849c46.093,0,91.181-15.928,126.958-44.849c33.559-27.128,57.743-64.596,68.594-106.056
	h9.248c28.231,0,51.2-22.969,51.2-51.2S489.031,204.8,460.8,204.8z M460.8,291.032h-15.595c-3.776,0-7.048,2.613-7.884,6.295
	C418,382.472,343.438,441.937,256,441.937c-87.439,0-162.001-59.465-181.321-144.61c-0.835-3.682-4.109-6.295-7.884-6.295H51.2
	c-19.317,0-35.032-15.716-35.032-35.032s15.715-35.032,35.032-35.032h15.595c3.776,0,7.048-2.613,7.884-6.295
	C93.999,129.528,168.561,70.063,256,70.063c87.438,0,162,59.465,181.321,144.61c0.835,3.682,4.109,6.295,7.884,6.295H460.8
	c19.317,0,35.032,15.716,35.032,35.032S480.117,291.032,460.8,291.032z M331.453,129.347c-10.67,0-20.586,3.285-28.797,8.892
	c-14.845-5.896-30.514-8.892-46.656-8.892c-69.837,0-126.653,56.816-126.653,126.653S186.163,382.653,256,382.653
	S382.653,325.837,382.653,256c0-16.14-2.995-31.811-8.892-46.656c5.606-8.21,8.892-18.126,8.892-28.797
	C382.653,152.316,359.684,129.347,331.453,129.347z M366.484,180.547c0,19.316-15.715,35.032-35.032,35.032
	c-19.317,0-35.032-15.716-35.032-35.032s15.715-35.032,35.032-35.032C350.77,145.516,366.484,161.231,366.484,180.547z M256,366.484
	c-60.922,0-110.484-49.563-110.484-110.484S195.078,145.516,256,145.516c11.616,0,22.951,1.77,33.828,5.274
	c-6.018,8.394-9.575,18.665-9.575,29.757c0,28.231,22.969,51.2,51.2,51.2c11.093,0,21.364-3.557,29.757-9.575
	c3.504,10.877,5.274,22.211,5.274,33.828C366.484,316.922,316.922,366.484,256,366.484z M247.916,18.863V8.084
	C247.916,3.62,251.534,0,256,0c4.466,0,8.084,3.62,8.084,8.084v10.779c0,4.465-3.618,8.084-8.084,8.084
	C251.534,26.947,247.916,23.328,247.916,18.863z M264.084,493.137v10.779c0,4.465-3.618,8.084-8.084,8.084
	c-4.466,0-8.084-3.62-8.084-8.084v-10.779c0-4.465,3.618-8.084,8.084-8.084C260.466,485.053,264.084,488.672,264.084,493.137z
	 M74.981,86.413c-3.157-3.157-3.157-8.276,0-11.432c3.158-3.157,8.276-3.157,11.433,0l7.622,7.622c3.157,3.157,3.157,8.276,0,11.432
	c-1.579,1.578-3.649,2.368-5.717,2.368c-2.068,0-4.138-0.789-5.717-2.368L74.981,86.413z M437.019,425.587
	c3.157,3.157,3.157,8.276,0,11.432c-1.579,1.578-3.649,2.368-5.717,2.368s-4.138-0.789-5.717-2.368l-7.622-7.622
	c-3.157-3.157-3.157-8.276,0-11.432c3.158-3.157,8.276-3.157,11.433,0L437.019,425.587z M417.964,94.036
	c-3.157-3.157-3.157-8.276,0-11.432l7.622-7.622c3.158-3.157,8.276-3.157,11.433,0c3.157,3.157,3.157,8.276,0,11.432l-7.622,7.622
	c-1.579,1.578-3.649,2.368-5.717,2.368C421.612,96.404,419.544,95.614,417.964,94.036z M94.036,417.964
	c3.157,3.157,3.157,8.276,0,11.432l-7.622,7.622c-1.579,1.578-3.649,2.368-5.717,2.368c-2.068,0-4.138-0.789-5.717-2.368
	c-3.157-3.157-3.157-8.276,0-11.432l7.622-7.622C85.761,414.808,90.878,414.808,94.036,417.964z"/>
<g>
</g>
<g>
</g>
<g>
</g>
<g>
</g>
<g>
</g>
<g>
</g>
<g>
</g>
<g>
</g>
<g>
</g>
<g>
</g>
<g>
</g>
<g>
</g>
<g>
</g>
<g>
</g>
<g>
</g>
</svg>
